<svg xmlns="http://www.w3.org/2000/svg" xmlns:xlink="http://www.w3.org/1999/xlink" width="500" zoomAndPan="magnify" viewBox="0 0 375 374.999991" height="500" preserveAspectRatio="xMidYMid meet" version="1.0"><defs><filter x="0%" y="0%" width="100%" height="100%" id="b1dc7b8dd8"><feColorMatrix values="0 0 0 0 1 0 0 0 0 1 0 0 0 0 1 0 0 0 1 0" color-interpolation-filters="sRGB"/></filter><mask id="0d956c7544"><g filter="url(#b1dc7b8dd8)"><rect x="-37.5" width="450" fill="#000000" y="-37.499999" height="449.999989" fill-opacity="0.2"/></g></mask><clipPath id="888ea66551"><path d="M 50 0.320312 L 239 0.320312 L 239 282 L 50 282 Z M 50 0.320312 " clip-rule="nonzero"/></clipPath><clipPath id="db25f59434"><path d="M 50.167969 0.371094 L 287.875 50.8125 L 238.679688 282.648438 L 0.972656 232.210938 Z M 50.167969 0.371094 " clip-rule="nonzero"/></clipPath><clipPath id="35a5288f69"><path d="M 50.167969 0.371094 L 287.875 50.8125 L 238.679688 282.648438 L 0.972656 232.210938 Z M 50.167969 0.371094 " clip-rule="nonzero"/></clipPath><clipPath id="0d7853159c"><path d="M 50.304688 0.398438 L 287.875 50.8125 L 238.699219 282.5625 L 1.125 232.152344 Z M 50.304688 0.398438 " clip-rule="nonzero"/></clipPath><clipPath id="5a8f3f05f1"><path d="M 60 19 L 198 19 L 198 267 L 60 267 Z M 60 19 " clip-rule="nonzero"/></clipPath><clipPath id="b9e4a6e2f6"><path d="M 50.167969 0.371094 L 287.875 50.8125 L 238.679688 282.648438 L 0.972656 232.210938 Z M 50.167969 0.371094 " clip-rule="nonzero"/></clipPath><clipPath id="8d71e9d7fa"><path d="M 50.167969 0.371094 L 287.875 50.8125 L 238.679688 282.648438 L 0.972656 232.210938 Z M 50.167969 0.371094 " clip-rule="nonzero"/></clipPath><clipPath id="6ddd5e087b"><rect x="0" width="289" y="0" height="284"/></clipPath><clipPath id="4692978768"><path d="M 129.921875 58.710938 L 252.570312 58.710938 L 252.570312 217.710938 L 129.921875 217.710938 Z M 129.921875 58.710938 " clip-rule="nonzero"/></clipPath></defs><rect x="-37.5" width="450" fill="#ffffff" y="-37.499999" height="449.999989" fill-opacity="1"/><rect x="-37.5" width="450" fill="#ffffff" y="-37.499999" height="449.999989" fill-opacity="1"/><g mask="url(#0d956c7544)"><g transform="matrix(1, 0, 0, 1, 43, 46)"><g clip-path="url(#6ddd5e087b)"><g clip-path="url(#888ea66551)"><g clip-path="url(#db25f59434)"><g clip-path="url(#35a5288f69)"><g clip-path="url(#0d7853159c)"><path fill="#b3d2a7" d="M 194.976562 269.152344 C 166.398438 256.804688 68.582031 205.398438 61.878906 120.757812 C 56.652344 54.832031 50.304688 0.398438 50.304688 0.398438 C 50.304688 0.398438 150.21875 44.269531 173.546875 114.207031 C 196.878906 184.148438 185.605469 251.261719 201.125 264.515625 C 210.09375 272.175781 235.457031 276.261719 235.457031 276.261719 L 238.820312 281.992188 C 238.820312 281.992188 223.558594 281.496094 194.976562 269.152344 " fill-opacity="1" fill-rule="nonzero"/></g></g></g></g><g clip-path="url(#5a8f3f05f1)"><g clip-path="url(#b9e4a6e2f6)"><g clip-path="url(#8d71e9d7fa)"><path fill="#b3d2a7" d="M 146.347656 102.855469 C 146.347656 102.8125 146.339844 102.769531 146.335938 102.730469 C 146.339844 102.769531 146.34375 102.808594 146.347656 102.855469 Z M 146.359375 102.535156 C 146.445312 102.410156 146.691406 102.320312 146.667969 102.320312 L 145.949219 102.402344 C 145.925781 102.40625 146.183594 102.4375 146.285156 102.542969 C 146.320312 102.589844 146.332031 102.65625 146.335938 102.730469 C 146.332031 102.652344 146.332031 102.589844 146.359375 102.535156 Z M 197.515625 266.855469 C 197.515625 266.855469 194.113281 263.949219 188.535156 258.453125 C 185.746094 255.703125 182.417969 252.308594 178.71875 248.296875 C 175.027344 244.285156 170.933594 239.683594 166.695312 234.472656 C 164.246094 231.464844 161.730469 228.253906 159.1875 224.871094 C 159.015625 224.867188 158.820312 224.859375 158.601562 224.847656 C 158.148438 224.835938 157.601562 224.820312 156.972656 224.796875 C 156.339844 224.777344 155.628906 224.769531 154.859375 224.675781 C 154.089844 224.601562 153.25 224.523438 152.363281 224.4375 C 151.480469 224.375 150.558594 224.164062 149.601562 224.023438 C 149.121094 223.945312 148.632812 223.871094 148.144531 223.777344 C 147.660156 223.664062 147.167969 223.546875 146.671875 223.429688 C 146.175781 223.308594 145.675781 223.191406 145.175781 223.070312 C 144.683594 222.917969 144.191406 222.761719 143.699219 222.609375 C 143.207031 222.445312 142.710938 222.304688 142.226562 222.128906 C 141.75 221.933594 141.273438 221.742188 140.800781 221.550781 C 139.84375 221.199219 138.972656 220.699219 138.097656 220.277344 C 137.664062 220.0625 137.273438 219.789062 136.867188 219.554688 C 136.472656 219.3125 136.074219 219.089844 135.71875 218.816406 C 135.359375 218.558594 135.007812 218.304688 134.671875 218.0625 C 134.34375 217.800781 134.042969 217.53125 133.746094 217.285156 C 133.445312 217.039062 133.183594 216.777344 132.933594 216.527344 C 132.6875 216.273438 132.433594 216.054688 132.238281 215.808594 C 132.03125 215.570312 131.839844 215.347656 131.660156 215.140625 C 131.496094 214.925781 131.347656 214.726562 131.210938 214.546875 C 130.949219 214.179688 130.757812 213.878906 130.644531 213.667969 C 130.519531 213.460938 130.46875 213.34375 130.46875 213.34375 C 130.46875 213.34375 130.523438 213.457031 130.652344 213.664062 C 130.769531 213.875 130.96875 214.164062 131.234375 214.527344 C 131.378906 214.703125 131.53125 214.902344 131.695312 215.113281 C 131.878906 215.316406 132.078125 215.53125 132.285156 215.765625 C 132.488281 216.003906 132.746094 216.21875 132.996094 216.464844 C 133.246094 216.707031 133.515625 216.964844 133.820312 217.199219 C 134.121094 217.4375 134.425781 217.699219 134.757812 217.949219 C 135.097656 218.1875 135.449219 218.429688 135.816406 218.679688 C 136.167969 218.941406 136.570312 219.152344 136.96875 219.386719 C 137.375 219.609375 137.769531 219.875 138.203125 220.074219 C 139.078125 220.472656 139.953125 220.953125 140.914062 221.277344 C 141.382812 221.457031 141.859375 221.640625 142.335938 221.820312 C 142.816406 221.984375 143.316406 222.113281 143.804688 222.261719 C 144.296875 222.40625 144.789062 222.550781 145.277344 222.691406 C 145.773438 222.796875 146.273438 222.90625 146.765625 223.011719 C 147.261719 223.117188 147.75 223.222656 148.230469 223.324219 C 148.71875 223.410156 149.203125 223.46875 149.679688 223.539062 C 150.632812 223.65625 151.542969 223.84375 152.425781 223.886719 C 153.300781 223.953125 154.132812 224.011719 154.898438 224.070312 C 155.664062 224.144531 156.371094 224.132812 156.992188 224.140625 C 157.617188 224.152344 158.160156 224.15625 158.609375 224.160156 C 158.628906 224.160156 158.640625 224.160156 158.652344 224.160156 C 152.578125 216.011719 146.378906 206.824219 140.632812 196.730469 C 138.238281 192.488281 135.929688 188.085938 133.753906 183.546875 C 132.855469 183.792969 130.160156 184.457031 126.378906 184.597656 C 125.210938 184.621094 123.949219 184.636719 122.613281 184.535156 C 121.28125 184.449219 119.882812 184.289062 118.449219 184.015625 C 117.011719 183.773438 115.558594 183.371094 114.097656 182.929688 C 112.652344 182.433594 111.191406 181.894531 109.804688 181.199219 C 108.402344 180.542969 107.066406 179.746094 105.785156 178.921875 C 105.144531 178.507812 104.546875 178.042969 103.933594 177.613281 C 103.34375 177.160156 102.777344 176.683594 102.214844 176.230469 C 101.667969 175.753906 101.152344 175.261719 100.636719 174.792969 C 100.121094 174.316406 99.667969 173.808594 99.199219 173.335938 C 98.726562 172.871094 98.320312 172.367188 97.910156 171.894531 C 97.507812 171.414062 97.097656 170.972656 96.757812 170.503906 C 96.058594 169.582031 95.398438 168.746094 94.894531 167.953125 C 94.363281 167.171875 93.894531 166.503906 93.5625 165.914062 C 92.867188 164.757812 92.46875 164.097656 92.46875 164.097656 C 92.46875 164.097656 92.875 164.75 93.585938 165.898438 C 93.925781 166.480469 94.410156 167.144531 94.949219 167.914062 C 95.464844 168.699219 96.132812 169.523438 96.847656 170.433594 C 97.191406 170.898438 97.609375 171.332031 98.015625 171.804688 C 98.429688 172.269531 98.84375 172.761719 99.320312 173.21875 C 99.792969 173.683594 100.253906 174.183594 100.769531 174.648438 C 101.289062 175.105469 101.808594 175.589844 102.363281 176.054688 C 102.929688 176.496094 103.496094 176.960938 104.089844 177.40625 C 104.703125 177.824219 105.304688 178.273438 105.945312 178.675781 C 107.226562 179.476562 108.558594 180.246094 109.960938 180.875 C 111.339844 181.542969 112.792969 182.050781 114.226562 182.519531 C 115.675781 182.9375 117.113281 183.308594 118.535156 183.53125 C 119.949219 183.78125 121.332031 183.917969 122.648438 183.984375 C 123.960938 184.066406 125.203125 184.03125 126.351562 183.988281 C 128.644531 183.863281 130.535156 183.5625 131.839844 183.28125 C 132.566406 183.132812 133.097656 182.992188 133.4375 182.890625 C 131.96875 179.808594 130.5625 176.660156 129.234375 173.453125 C 125.855469 165.292969 122.988281 156.757812 120.894531 148.015625 C 119.847656 143.648438 119 139.230469 118.367188 134.792969 C 118.335938 134.574219 118.300781 134.355469 118.265625 134.128906 C 118 134.242188 117.652344 134.355469 117.207031 134.488281 C 116.949219 134.550781 116.667969 134.621094 116.359375 134.699219 C 116.050781 134.75 115.714844 134.808594 115.355469 134.867188 C 114.996094 134.941406 114.609375 134.945312 114.203125 134.980469 C 113.796875 135.011719 113.367188 135.050781 112.921875 135.019531 C 112.476562 135.007812 112.007812 135.007812 111.53125 134.976562 C 111.054688 134.914062 110.5625 134.851562 110.058594 134.785156 C 109.546875 134.746094 109.042969 134.589844 108.519531 134.476562 C 108.007812 134.339844 107.457031 134.269531 106.941406 134.0625 C 105.894531 133.699219 104.796875 133.363281 103.761719 132.828125 C 103.238281 132.582031 102.699219 132.351562 102.179688 132.085938 C 101.671875 131.785156 101.164062 131.488281 100.660156 131.191406 C 100.15625 130.882812 99.621094 130.628906 99.15625 130.273438 C 98.679688 129.929688 98.207031 129.59375 97.734375 129.253906 C 97.273438 128.914062 96.789062 128.601562 96.351562 128.238281 C 95.921875 127.871094 95.492188 127.511719 95.078125 127.152344 C 94.246094 126.433594 93.40625 125.777344 92.714844 125.039062 C 92.003906 124.328125 91.328125 123.65625 90.703125 123.035156 C 90.0625 122.433594 89.570312 121.789062 89.09375 121.261719 C 88.625 120.722656 88.21875 120.253906 87.882812 119.867188 C 87.210938 119.09375 86.824219 118.652344 86.824219 118.652344 C 86.824219 118.652344 87.21875 119.089844 87.90625 119.847656 C 88.25 120.226562 88.664062 120.6875 89.144531 121.21875 C 89.632812 121.734375 90.132812 122.371094 90.789062 122.957031 C 91.417969 123.566406 92.105469 124.222656 92.832031 124.917969 C 93.53125 125.640625 94.382812 126.273438 95.222656 126.976562 C 95.644531 127.324219 96.074219 127.675781 96.511719 128.035156 C 96.953125 128.382812 97.4375 128.683594 97.90625 129.015625 C 98.378906 129.339844 98.855469 129.667969 99.332031 129.996094 C 99.800781 130.34375 100.339844 130.582031 100.835938 130.882812 C 101.347656 131.164062 101.851562 131.449219 102.359375 131.734375 C 102.878906 131.988281 103.414062 132.203125 103.933594 132.441406 C 104.964844 132.945312 106.050781 133.25 107.082031 133.589844 C 107.59375 133.78125 108.128906 133.839844 108.632812 133.964844 C 109.144531 134.0625 109.636719 134.207031 110.136719 134.238281 C 110.628906 134.292969 111.105469 134.34375 111.570312 134.394531 C 112.035156 134.414062 112.488281 134.40625 112.917969 134.414062 C 113.351562 134.433594 113.761719 134.386719 114.152344 134.351562 C 114.539062 134.308594 114.914062 134.296875 115.257812 134.21875 C 115.597656 134.15625 115.917969 134.097656 116.214844 134.039062 C 116.507812 133.960938 116.773438 133.890625 117.011719 133.824219 C 117.480469 133.675781 117.863281 133.542969 118.085938 133.4375 C 118.109375 133.425781 118.132812 133.417969 118.160156 133.40625 C 117.894531 131.671875 117.628906 129.9375 117.367188 128.214844 C 116.976562 126.042969 116.585938 123.878906 116.195312 121.722656 C 114.792969 114.523438 113.042969 107.492188 111.007812 100.734375 C 110.9375 100.722656 110.832031 100.710938 110.691406 100.699219 C 110.414062 100.664062 110.019531 100.605469 109.523438 100.519531 C 109.023438 100.433594 108.417969 100.324219 107.730469 100.171875 C 107.042969 100.019531 106.269531 99.835938 105.4375 99.601562 C 104.597656 99.390625 103.710938 99.082031 102.765625 98.792969 C 101.835938 98.449219 100.84375 98.117188 99.851562 97.699219 C 98.855469 97.277344 97.824219 96.851562 96.8125 96.332031 C 96.308594 96.078125 95.785156 95.84375 95.285156 95.566406 C 94.785156 95.289062 94.28125 95.007812 93.78125 94.726562 C 92.761719 94.1875 91.824219 93.515625 90.863281 92.917969 C 90.382812 92.621094 89.933594 92.285156 89.488281 91.953125 C 89.042969 91.621094 88.605469 91.292969 88.171875 90.972656 C 87.730469 90.664062 87.328125 90.320312 86.9375 89.980469 C 86.542969 89.640625 86.160156 89.308594 85.785156 88.992188 C 85.015625 88.371094 84.371094 87.691406 83.761719 87.085938 C 83.160156 86.46875 82.566406 85.945312 82.117188 85.410156 C 81.660156 84.882812 81.261719 84.421875 80.933594 84.039062 C 80.277344 83.28125 79.902344 82.847656 79.902344 82.847656 C 79.902344 82.847656 80.289062 83.277344 80.957031 84.019531 C 81.292969 84.394531 81.699219 84.84375 82.164062 85.363281 C 82.621094 85.894531 83.226562 86.40625 83.835938 87.007812 C 84.460938 87.597656 85.117188 88.257812 85.894531 88.863281 C 86.273438 89.175781 86.664062 89.496094 87.0625 89.824219 C 87.457031 90.15625 87.867188 90.488281 88.308594 90.792969 C 88.746094 91.101562 89.191406 91.417969 89.640625 91.738281 C 90.085938 92.0625 90.539062 92.386719 91.027344 92.667969 C 91.992188 93.25 92.933594 93.898438 93.957031 94.410156 C 94.460938 94.679688 94.964844 94.949219 95.46875 95.21875 C 95.96875 95.484375 96.492188 95.703125 96.996094 95.945312 C 98.007812 96.441406 99.039062 96.839844 100.03125 97.238281 C 101.023438 97.636719 102.011719 97.945312 102.9375 98.261719 C 103.878906 98.535156 104.761719 98.824219 105.59375 99.011719 C 106.417969 99.230469 107.183594 99.390625 107.863281 99.53125 C 108.542969 99.667969 109.136719 99.761719 109.628906 99.839844 C 110.121094 99.910156 110.507812 99.964844 110.765625 99.988281 C 110.773438 99.988281 110.777344 99.988281 110.785156 99.988281 C 110.457031 98.910156 110.121094 97.839844 109.777344 96.773438 C 107.21875 88.8125 104.246094 81.289062 101.121094 74.289062 C 98.8125 69.144531 96.390625 64.304688 93.929688 59.804688 C 93.871094 59.792969 93.800781 59.777344 93.722656 59.761719 C 93.425781 59.683594 92.972656 59.628906 92.425781 59.457031 C 92.148438 59.378906 91.84375 59.292969 91.511719 59.199219 C 91.183594 59.085938 90.832031 58.964844 90.457031 58.835938 C 90.078125 58.714844 89.691406 58.542969 89.277344 58.378906 C 88.863281 58.214844 88.433594 58.027344 87.988281 57.816406 C 87.546875 57.617188 87.085938 57.402344 86.621094 57.15625 C 86.152344 56.917969 85.671875 56.667969 85.183594 56.394531 C 84.207031 55.855469 83.199219 55.253906 82.179688 54.59375 C 80.132812 53.28125 78.03125 51.773438 75.996094 50.175781 C 71.925781 46.984375 68.121094 43.476562 65.363281 40.757812 C 62.601562 38.046875 60.871094 36.128906 60.871094 36.128906 C 60.871094 36.128906 62.636719 38.015625 65.445312 40.679688 C 68.242188 43.347656 72.109375 46.78125 76.214844 49.890625 C 78.269531 51.445312 80.390625 52.914062 82.441406 54.175781 C 83.464844 54.8125 84.476562 55.394531 85.449219 55.90625 C 85.933594 56.171875 86.414062 56.410156 86.882812 56.636719 C 87.34375 56.867188 87.800781 57.070312 88.238281 57.261719 C 88.679688 57.464844 89.101562 57.640625 89.511719 57.789062 C 89.917969 57.945312 90.300781 58.105469 90.671875 58.21875 C 91.042969 58.335938 91.390625 58.449219 91.707031 58.554688 C 92.03125 58.636719 92.328125 58.71875 92.597656 58.789062 C 92.9375 58.886719 93.234375 58.941406 93.480469 58.988281 C 92.746094 57.652344 92.003906 56.34375 91.265625 55.070312 C 87.890625 49.292969 84.492188 44.171875 81.339844 39.734375 C 78.179688 35.308594 75.230469 31.582031 72.695312 28.605469 C 67.628906 22.648438 64.3125 19.625 64.3125 19.625 C 64.3125 19.625 65.160156 20.355469 66.664062 21.820312 C 68.167969 23.28125 70.332031 25.472656 72.925781 28.40625 C 75.523438 31.339844 78.554688 35.011719 81.8125 39.390625 C 85.078125 43.765625 88.550781 48.867188 92.003906 54.632812 C 95.457031 60.402344 98.910156 66.828125 102.148438 73.820312 C 102.1875 73.90625 102.226562 73.996094 102.265625 74.082031 C 102.34375 73.8125 102.445312 73.449219 102.527344 72.988281 C 102.652344 72.457031 102.746094 71.792969 102.851562 71.035156 C 102.933594 70.273438 103.015625 69.410156 103.058594 68.460938 C 103.101562 67.515625 103.117188 66.488281 103.105469 65.398438 C 103.089844 64.3125 103.042969 63.164062 102.976562 61.972656 C 102.828125 59.601562 102.566406 57.074219 102.238281 54.554688 C 101.582031 49.511719 100.632812 44.507812 99.84375 40.773438 C 99.058594 37.039062 98.429688 34.574219 98.429688 34.574219 C 98.429688 34.574219 101.105469 44.410156 102.59375 54.5 C 102.96875 57.023438 103.277344 59.554688 103.46875 61.941406 C 103.558594 63.132812 103.625 64.289062 103.660156 65.386719 C 103.691406 66.484375 103.691406 67.523438 103.667969 68.488281 C 103.640625 69.449219 103.574219 70.328125 103.503906 71.109375 C 103.402344 71.886719 103.324219 72.566406 103.203125 73.121094 C 103.113281 73.683594 102.992188 74.109375 102.917969 74.410156 C 102.839844 74.703125 102.800781 74.859375 102.800781 74.859375 L 102.59375 74.796875 C 105.675781 81.511719 108.503906 88.753906 111 96.378906 C 112.261719 100.226562 113.425781 104.175781 114.488281 108.203125 C 114.636719 107.957031 114.820312 107.636719 115.035156 107.257812 C 115.601562 106.234375 116.398438 104.757812 117.234375 102.925781 C 117.671875 102.015625 118.089844 101.007812 118.535156 99.945312 C 118.976562 98.875 119.394531 97.734375 119.828125 96.550781 C 120.214844 95.351562 120.675781 94.128906 121.011719 92.851562 C 121.191406 92.210938 121.375 91.570312 121.558594 90.929688 C 121.734375 90.277344 121.871094 89.621094 122.027344 88.96875 C 122.171875 88.3125 122.347656 87.660156 122.472656 87.003906 C 122.589844 86.34375 122.703125 85.683594 122.820312 85.03125 C 123.085938 83.734375 123.203125 82.433594 123.359375 81.183594 C 123.546875 79.933594 123.578125 78.710938 123.652344 77.554688 C 123.683594 76.976562 123.710938 76.414062 123.746094 75.871094 C 123.738281 75.328125 123.734375 74.800781 123.726562 74.296875 C 123.707031 73.285156 123.730469 72.359375 123.683594 71.539062 C 123.613281 70.722656 123.554688 70.007812 123.507812 69.421875 C 123.410156 68.242188 123.359375 67.570312 123.359375 67.570312 C 123.359375 67.570312 123.421875 68.242188 123.539062 69.414062 C 123.597656 70.003906 123.667969 70.71875 123.75 71.535156 C 123.808594 72.355469 123.804688 73.285156 123.839844 74.292969 C 123.855469 74.800781 123.867188 75.328125 123.882812 75.875 C 123.863281 76.421875 123.839844 76.984375 123.816406 77.5625 C 123.765625 78.722656 123.753906 79.949219 123.589844 81.207031 C 123.453125 82.464844 123.355469 83.769531 123.109375 85.082031 C 123.003906 85.738281 122.898438 86.398438 122.789062 87.0625 C 122.679688 87.726562 122.515625 88.382812 122.378906 89.046875 C 122.230469 89.707031 122.105469 90.371094 121.941406 91.023438 C 121.769531 91.675781 121.59375 92.324219 121.425781 92.964844 C 121.105469 94.261719 120.660156 95.492188 120.296875 96.710938 C 119.878906 97.90625 119.476562 99.066406 119.050781 100.148438 C 118.617188 101.226562 118.210938 102.253906 117.789062 103.175781 C 116.976562 105.039062 116.195312 106.542969 115.636719 107.59375 C 115.355469 108.113281 115.125 108.523438 114.960938 108.800781 C 114.851562 108.984375 114.777344 109.105469 114.742188 109.167969 C 115.785156 113.195312 116.730469 117.292969 117.558594 121.453125 C 117.960938 123.625 118.386719 125.808594 118.769531 127.996094 C 119.109375 130.191406 119.453125 132.390625 119.796875 134.597656 C 120.40625 138.984375 121.230469 143.359375 122.253906 147.691406 C 122.980469 150.773438 123.808594 153.832031 124.71875 156.859375 C 124.964844 156.550781 125.269531 156.175781 125.621094 155.722656 C 126.652344 154.414062 128.089844 152.507812 129.730469 150.160156 C 130.546875 148.980469 131.421875 147.703125 132.3125 146.320312 C 133.210938 144.949219 134.105469 143.464844 135.019531 141.921875 C 135.917969 140.375 136.828125 138.761719 137.691406 137.09375 C 138.570312 135.429688 139.414062 133.714844 140.203125 131.972656 C 141.003906 130.238281 141.738281 128.472656 142.410156 126.714844 C 142.730469 125.828125 143.054688 124.953125 143.351562 124.082031 C 143.625 123.199219 143.925781 122.339844 144.171875 121.480469 C 144.675781 119.757812 145.101562 118.078125 145.4375 116.46875 C 145.777344 114.863281 146.011719 113.328125 146.195312 111.902344 C 146.269531 111.1875 146.335938 110.507812 146.402344 109.855469 C 146.449219 109.207031 146.464844 108.585938 146.496094 108.003906 C 146.53125 107.421875 146.53125 106.875 146.515625 106.371094 C 146.511719 105.867188 146.503906 105.402344 146.5 104.984375 C 146.460938 104.148438 146.390625 103.496094 146.363281 103.050781 C 146.351562 102.976562 146.351562 102.917969 146.347656 102.855469 C 146.355469 102.914062 146.363281 102.976562 146.363281 103.050781 C 146.394531 103.492188 146.464844 104.152344 146.507812 104.984375 C 146.515625 105.40625 146.523438 105.867188 146.53125 106.371094 C 146.550781 106.875 146.550781 107.421875 146.519531 108.003906 C 146.488281 108.585938 146.476562 109.207031 146.433594 109.859375 C 146.371094 110.507812 146.304688 111.195312 146.234375 111.90625 C 146.058594 113.332031 145.828125 114.871094 145.496094 116.480469 C 145.167969 118.09375 144.746094 119.777344 144.25 121.5 C 144.007812 122.367188 143.710938 123.226562 143.441406 124.109375 C 143.144531 124.988281 142.824219 125.863281 142.511719 126.753906 C 141.835938 128.507812 141.136719 130.292969 140.355469 132.042969 C 139.589844 133.792969 138.761719 135.527344 137.910156 137.203125 C 137.058594 138.886719 136.167969 140.515625 135.289062 142.078125 C 133.503906 145.195312 131.734375 148.046875 130.148438 150.441406 C 127.761719 154.027344 125.800781 156.605469 124.964844 157.671875 C 126.5625 162.875 128.402344 167.984375 130.441406 172.957031 C 133.769531 181.078125 137.609375 188.835938 141.695312 196.128906 C 141.714844 196.15625 141.730469 196.1875 141.746094 196.214844 C 142.199219 196.082031 142.929688 195.847656 143.890625 195.457031 C 144.726562 195.105469 145.738281 194.660156 146.84375 194.050781 C 147.945312 193.433594 149.171875 192.699219 150.425781 191.765625 C 151.667969 190.828125 152.984375 189.765625 154.238281 188.488281 C 155.484375 187.210938 156.742188 185.796875 157.855469 184.191406 C 158.449219 183.414062 158.9375 182.546875 159.488281 181.707031 C 159.734375 181.265625 159.976562 180.824219 160.222656 180.378906 C 160.476562 179.9375 160.71875 179.488281 160.925781 179.019531 C 161.148438 178.554688 161.367188 178.089844 161.589844 177.621094 C 161.808594 177.152344 161.984375 176.664062 162.179688 176.183594 C 162.59375 175.230469 162.90625 174.230469 163.234375 173.242188 L 163.484375 172.5 L 163.683594 171.742188 L 164.085938 170.230469 C 164.355469 169.222656 164.519531 168.199219 164.738281 167.195312 C 164.933594 166.179688 165.046875 165.164062 165.203125 164.167969 C 165.351562 163.167969 165.402344 162.171875 165.503906 161.195312 C 165.621094 160.21875 165.621094 159.253906 165.664062 158.3125 C 165.707031 157.367188 165.742188 156.441406 165.714844 155.542969 C 165.703125 154.640625 165.691406 153.769531 165.683594 152.917969 C 165.632812 152.074219 165.585938 151.257812 165.539062 150.472656 C 165.476562 148.902344 165.292969 147.472656 165.164062 146.203125 C 165.09375 145.566406 165.042969 144.96875 164.972656 144.421875 C 164.890625 143.875 164.816406 143.371094 164.75 142.917969 C 164.480469 141.105469 164.328125 140.066406 164.328125 140.066406 C 164.328125 140.066406 164.492188 141.101562 164.777344 142.914062 C 164.851562 143.367188 164.933594 143.867188 165.019531 144.414062 C 165.097656 144.964844 165.15625 145.558594 165.234375 146.191406 C 165.375 147.464844 165.570312 148.894531 165.652344 150.464844 C 165.707031 151.25 165.765625 152.066406 165.820312 152.914062 C 165.839844 153.761719 165.863281 154.640625 165.878906 155.542969 C 165.917969 156.441406 165.894531 157.371094 165.863281 158.316406 C 165.828125 159.265625 165.835938 160.234375 165.734375 161.214844 C 165.640625 162.195312 165.601562 163.195312 165.460938 164.199219 C 165.320312 165.203125 165.210938 166.226562 165.027344 167.242188 C 164.816406 168.257812 164.660156 169.289062 164.402344 170.308594 L 164.015625 171.832031 L 163.820312 172.597656 L 163.578125 173.347656 C 163.257812 174.351562 162.953125 175.355469 162.550781 176.328125 C 162.355469 176.8125 162.179688 177.308594 161.964844 177.785156 C 161.746094 178.261719 161.53125 178.734375 161.3125 179.207031 C 161.105469 179.683594 160.867188 180.136719 160.617188 180.589844 C 160.371094 181.042969 160.128906 181.492188 159.886719 181.941406 C 159.339844 182.796875 158.851562 183.679688 158.257812 184.472656 C 157.148438 186.117188 155.886719 187.566406 154.628906 188.875 C 153.375 190.191406 152.042969 191.289062 150.789062 192.253906 C 149.523438 193.21875 148.28125 193.980469 147.160156 194.621094 C 146.035156 195.257812 145.007812 195.726562 144.152344 196.09375 C 143.285156 196.460938 142.585938 196.699219 142.105469 196.851562 C 147.742188 206.890625 153.820312 216.046875 159.78125 224.175781 C 159.933594 224.175781 160.019531 224.175781 160.019531 224.175781 L 160.019531 224.503906 C 162.480469 227.84375 164.917969 231.011719 167.292969 233.988281 C 171.480469 239.21875 175.445312 243.917969 179.074219 247.980469 C 182.691406 252.050781 185.957031 255.5 188.691406 258.292969 C 194.164062 263.890625 197.515625 266.855469 197.515625 266.855469 " fill-opacity="1" fill-rule="nonzero"/></g></g></g></g></g></g><g clip-path="url(#4692978768)"><path fill="#000000" d="M 188.765625 148.804688 C 190.003906 146.976562 191.589844 146.148438 193.3125 145.425781 C 201.582031 141.980469 210.335938 140.292969 219.085938 138.742188 C 225.460938 137.605469 231.9375 136.8125 238.382812 136.296875 C 242.621094 135.949219 246.789062 137.121094 250.820312 138.570312 C 251.441406 138.8125 252.234375 138.570312 252.921875 138.535156 C 252.613281 137.847656 252.472656 136.949219 251.957031 136.46875 C 244.308594 129.371094 235.347656 126.855469 225.253906 129.4375 C 218.328125 131.195312 211.539062 133.503906 204.753906 135.777344 C 200.996094 137.019531 197.378906 138.605469 193.554688 140.121094 C 194.035156 139.222656 194.382812 138.363281 194.863281 137.605469 C 198.066406 132.539062 199.207031 126.785156 200.308594 121.03125 C 202.304688 110.765625 204.269531 100.496094 206.335938 90.261719 C 207.335938 85.265625 208.785156 80.375 212.09375 76.34375 C 214.46875 73.484375 217.054688 70.796875 219.5 68.003906 C 221.566406 65.625 223.566406 63.25 225.5625 60.804688 C 225.839844 60.457031 226.011719 59.699219 225.804688 59.390625 C 225.597656 58.976562 224.945312 58.734375 224.425781 58.734375 C 219.429688 58.804688 214.640625 59.976562 210.230469 62.25 C 203.824219 65.523438 198.378906 69.933594 195.070312 76.550781 C 192.867188 80.925781 192.140625 85.644531 191.554688 90.46875 C 190.28125 100.597656 190.695312 110.765625 190.28125 120.894531 C 190.179688 123.511719 189.832031 126.097656 189.558594 129.09375 C 189.28125 128.441406 189.109375 128.09375 188.972656 127.75 C 187.144531 122.789062 184.699219 118.207031 181.011719 114.347656 C 180.773438 114.070312 180.53125 113.691406 180.21875 113.625 C 178.050781 113.175781 178.359375 111.28125 177.84375 109.800781 C 176.914062 107.113281 175.914062 104.390625 174.742188 101.769531 C 173.398438 98.808594 171.949219 95.914062 170.398438 93.089844 C 167.644531 88.09375 166.714844 82.683594 166.507812 77.066406 C 166.507812 76.757812 166.574219 76.378906 166.4375 76.136719 C 166.128906 75.550781 165.679688 75.035156 165.300781 74.480469 C 164.820312 74.929688 163.992188 75.308594 163.886719 75.824219 C 163.269531 78.6875 162.613281 81.546875 162.371094 84.472656 C 161.753906 91.640625 163.785156 98.359375 166.023438 105.011719 C 167.679688 109.867188 169.230469 114.726562 170.8125 119.617188 C 170.847656 119.757812 170.8125 119.929688 170.78125 120.066406 C 170.710938 120.066406 170.640625 120.066406 170.605469 120.03125 C 166.886719 116.242188 162.199219 114.347656 157.136719 113.105469 C 149.554688 111.210938 143.113281 107.179688 137.289062 102.082031 C 135.394531 100.425781 133.394531 98.910156 131.363281 97.429688 C 130.914062 97.121094 130.191406 97.222656 129.605469 97.121094 C 129.671875 97.738281 129.570312 98.464844 129.878906 98.945312 C 132.5 103.597656 136.597656 106.765625 140.628906 110.039062 C 145.179688 113.726562 149.761719 117.414062 154.207031 121.203125 C 157.273438 123.824219 159.546875 127.0625 161.441406 130.609375 C 163.0625 133.640625 164.851562 136.605469 166.574219 139.601562 C 168.265625 142.53125 170.605469 144.773438 173.535156 146.496094 C 174.15625 146.875 174.742188 147.285156 175.292969 148.078125 C 173.433594 148.078125 171.539062 147.976562 169.675781 148.113281 C 166.09375 148.355469 162.40625 148.320312 158.960938 149.183594 C 155.929688 149.941406 152.929688 151.386719 150.382812 153.214844 C 146.832031 155.761719 146.109375 160.863281 148.175781 165.410156 C 149.003906 167.203125 150.105469 168.890625 151.207031 170.542969 C 152.929688 173.128906 154.136719 175.886719 154.378906 178.984375 C 154.585938 181.984375 153.207031 184.328125 151.035156 186.289062 C 150.242188 186.980469 149.453125 187.667969 148.691406 188.394531 C 147.832031 189.253906 147.96875 190.011719 149.039062 190.703125 C 152.105469 192.628906 155.480469 192.046875 158.480469 188.976562 C 163.300781 184.050781 163.957031 176.816406 160.0625 171.164062 C 158.824219 169.375 157.375 167.683594 156.273438 165.789062 C 155.136719 163.859375 155.480469 162.894531 157.515625 161.449219 C 157.753906 161.863281 158.203125 162.273438 158.167969 162.65625 C 157.925781 166.273438 160.203125 168.375 162.820312 170.164062 C 165.886719 172.234375 168.195312 174.78125 169.367188 178.332031 C 170.675781 182.398438 172.15625 186.429688 173.292969 190.5625 C 173.640625 191.839844 173.292969 193.355469 173.121094 194.734375 C 172.8125 197.351562 172.707031 199.902344 175.050781 201.761719 C 175.570312 202.175781 176.222656 202.554688 176.84375 202.621094 C 181.734375 203.070312 186.628906 203.449219 191.523438 203.863281 C 192.109375 205.378906 192.691406 206.828125 193.277344 208.273438 C 194.140625 210.410156 195.484375 211.996094 197.585938 213.0625 C 200.203125 214.371094 202.71875 215.886719 205.304688 217.230469 C 205.925781 217.578125 206.683594 217.714844 207.40625 217.75 C 209.023438 217.851562 209.679688 216.75 208.886719 215.300781 C 208.714844 214.992188 208.472656 214.683594 208.265625 214.40625 C 207.714844 213.71875 207.128906 213.027344 206.578125 212.339844 C 205.339844 210.652344 203.960938 209.03125 202.996094 207.171875 C 201.996094 205.242188 203.648438 203.347656 203.683594 201.382812 C 203.71875 197.523438 203.824219 193.664062 203.996094 189.804688 C 204.132812 186.738281 204.40625 183.636719 205.683594 180.777344 C 206.820312 178.195312 208.058594 175.644531 209.164062 173.058594 C 209.957031 171.234375 211.300781 169.992188 213.160156 169.613281 C 216.296875 168.960938 217.226562 166.859375 217.363281 164.066406 C 217.398438 163.238281 217.46875 162.414062 217.5 161.414062 C 218.84375 162.101562 219.257812 163.136719 219.257812 164.378906 C 219.257812 167.683594 220.636719 170.511719 222.53125 173.027344 C 223.324219 174.09375 224.738281 174.714844 225.941406 175.367188 C 226.253906 175.539062 227.183594 175.300781 227.253906 175.058594 C 227.390625 174.644531 227.285156 173.886719 226.976562 173.578125 C 223.738281 170.132812 223.359375 167.789062 225.632812 163.652344 C 227.253906 160.726562 227.183594 158.621094 224.496094 155.660156 C 223.015625 154.039062 221.085938 152.558594 219.085938 151.765625 C 214.8125 150.078125 210.4375 148.628906 205.957031 147.597656 C 201.480469 146.5625 196.898438 147.082031 192.417969 148.078125 C 191.347656 148.21875 190.179688 148.492188 188.765625 148.804688 Z M 222.289062 60.699219 C 222.429688 60.835938 222.53125 60.976562 222.667969 61.113281 C 221.324219 62.765625 220.050781 64.457031 218.636719 66.074219 C 215.949219 69.140625 213.089844 72.070312 210.507812 75.238281 C 207.0625 79.445312 205.546875 84.507812 204.511719 89.746094 C 202.480469 99.945312 200.375 110.144531 198.550781 120.378906 C 197.308594 127.300781 195.277344 133.882812 191.453125 139.84375 C 190.96875 140.566406 190.523438 141.292969 189.867188 142.289062 C 190.074219 139.601562 190.246094 137.292969 190.488281 135.019531 C 191.144531 128.886719 192.246094 122.789062 192.417969 116.65625 C 192.660156 108.007812 192.519531 99.394531 193.519531 90.78125 C 194.035156 86.300781 194.621094 81.820312 196.757812 77.789062 C 202.238281 67.488281 211.195312 62.457031 222.289062 60.699219 Z M 143.492188 109.59375 C 143.523438 109.523438 143.558594 109.488281 143.59375 109.421875 C 144.007812 109.625 144.386719 109.765625 144.800781 110.007812 C 148.625 112.210938 152.519531 114.242188 156.894531 115.070312 C 164.785156 116.585938 170.261719 121.273438 173.984375 128.128906 C 176.636719 132.988281 179.082031 137.949219 181.632812 142.875 C 182.734375 145.011719 183.839844 147.183594 184.941406 149.355469 C 184.804688 149.492188 184.664062 149.628906 184.5625 149.734375 C 182.769531 148.976562 180.910156 148.285156 179.1875 147.390625 C 175.191406 145.289062 171.160156 143.1875 168.710938 139.15625 C 166.921875 136.226562 165.265625 133.160156 163.507812 130.195312 C 162.234375 128.0625 161.0625 125.753906 159.410156 123.890625 C 156.617188 120.789062 153.550781 117.929688 150.449219 115.105469 C 148.210938 113.175781 145.800781 111.453125 143.492188 109.59375 Z M 168.367188 172.128906 C 171.160156 172.644531 174.15625 173.472656 177.1875 173.714844 C 179.496094 173.886719 180.460938 174.851562 181.425781 176.882812 C 184.320312 183.085938 187.316406 189.253906 189.214844 195.871094 C 189.765625 197.800781 190.316406 199.730469 190.867188 201.691406 C 186.558594 201.347656 182.460938 200.867188 178.359375 200.726562 C 176.566406 200.660156 175.015625 199.316406 174.949219 197.386719 C 174.914062 196.316406 175.121094 195.214844 175.191406 194.113281 C 176.707031 194.558594 178.050781 194.9375 179.394531 195.316406 C 180.359375 193.972656 179.875 193.355469 178.53125 193.042969 C 176.636719 192.628906 175.085938 191.90625 175.191406 189.53125 C 175.222656 188.839844 174.8125 188.117188 174.605469 187.429688 C 172.882812 182.085938 171.503906 176.574219 168.367188 172.128906 Z M 179.152344 150.25 C 179.152344 150.355469 179.1875 150.457031 179.1875 150.558594 C 178.910156 150.664062 178.636719 150.835938 178.359375 150.90625 C 170.8125 152.9375 163.441406 155.316406 156.722656 159.414062 C 153.792969 161.207031 152.964844 163.6875 154.550781 166.71875 C 155 167.582031 155.617188 168.410156 156.171875 169.199219 C 157.136719 170.578125 158.203125 171.886719 159.132812 173.265625 C 160.753906 175.679688 161.132812 178.332031 160.375 181.089844 C 159.375 184.601562 157.859375 187.738281 154.242188 189.359375 C 153.035156 189.910156 151.933594 190.117188 150.726562 189.082031 C 151.378906 188.496094 152 188.015625 152.550781 187.460938 C 155.101562 185.085938 156.550781 182.226562 156.308594 178.675781 C 156.066406 175.265625 154.792969 172.199219 152.898438 169.339844 C 151.828125 167.71875 150.726562 166.101562 149.933594 164.34375 C 148.210938 160.585938 148.867188 156.417969 151.792969 154.488281 C 154.207031 152.902344 156.960938 151.765625 159.71875 150.871094 C 164.058594 149.492188 168.644531 149.90625 173.121094 149.871094 C 175.121094 149.941406 177.152344 150.148438 179.152344 150.25 Z M 206.269531 215.199219 C 206.234375 215.269531 206.199219 215.335938 206.164062 215.40625 C 205.199219 214.921875 204.234375 214.511719 203.304688 213.957031 C 201.71875 213.0625 200.203125 212.03125 198.550781 211.203125 C 196.898438 210.375 195.761719 209.167969 195.140625 207.480469 C 194.105469 204.691406 193.175781 201.863281 192.175781 199.074219 C 189.972656 193.042969 187.835938 187.015625 185.527344 181.019531 C 184.527344 178.402344 183.113281 175.917969 182.011719 173.335938 C 179.738281 168.132812 181.253906 163.273438 183.527344 158.484375 C 184.457031 161.65625 185.214844 164.824219 185.90625 168.03125 C 186.59375 171.128906 186.9375 174.335938 187.972656 177.296875 C 189.695312 182.191406 191.589844 186.980469 192.660156 192.046875 C 193.65625 196.800781 195.65625 201.105469 198.792969 204.929688 C 201.480469 208.203125 203.789062 211.753906 206.269531 215.199219 Z M 193.554688 158.382812 C 196.550781 158.039062 199.207031 157.761719 201.859375 157.484375 C 204.992188 157.140625 208.058594 156.867188 211.160156 158.105469 C 215.882812 160.035156 216.261719 160.519531 215.160156 165.515625 C 215.160156 165.546875 215.125 165.617188 215.125 165.652344 C 214.953125 166.617188 214.398438 166.890625 213.402344 167.066406 C 212.160156 167.269531 210.886719 166.652344 209.609375 167.753906 C 208.613281 168.613281 206.890625 168.648438 205.476562 168.996094 C 204.40625 169.234375 203.304688 169.546875 202.238281 169.578125 C 201.375 169.613281 199.996094 169.578125 199.6875 169.0625 C 197.515625 165.652344 195.621094 162.070312 193.554688 158.382812 Z M 178.496094 170.097656 C 175.636719 169.40625 172.742188 168.753906 169.847656 168.03125 C 167.988281 167.582031 166.09375 167.375 164.578125 165.789062 C 163.957031 165.136719 163.199219 163.617188 161.613281 164.582031 C 161.511719 164.652344 160.375 163.652344 160.234375 163.035156 C 159.824219 160.863281 160.546875 159.621094 162.40625 158.519531 C 162.957031 158.210938 163.507812 157.898438 164.058594 157.660156 C 166.816406 156.347656 169.402344 155.351562 172.640625 156.761719 C 175.191406 157.863281 178.1875 157.933594 180.945312 158.449219 C 180.425781 160.207031 179.773438 162.101562 179.324219 164.03125 C 178.980469 166.03125 178.773438 168.03125 178.496094 170.097656 Z M 180.945312 135.261719 C 180.773438 135.332031 180.597656 135.398438 180.425781 135.46875 C 178.050781 130.472656 175.222656 125.648438 173.363281 120.480469 C 170.054688 111.316406 166.507812 102.183594 164.679688 92.535156 C 163.992188 88.882812 163.921875 85.199219 164.679688 81.546875 C 164.957031 82.71875 165.09375 83.921875 165.371094 85.09375 C 166.609375 90.953125 169.46875 96.15625 172.296875 101.359375 C 174.433594 105.320312 176.050781 109.351562 176.601562 113.863281 C 177.152344 118.273438 177.945312 122.652344 178.808594 127.027344 C 179.324219 129.75 180.21875 132.503906 180.945312 135.261719 Z M 201.066406 202.761719 C 201.03125 202.417969 200.960938 202.070312 200.929688 201.726562 C 200.894531 201.417969 200.859375 201.105469 200.894531 200.796875 C 201.167969 195.285156 200.34375 189.910156 198.757812 184.707031 C 197.207031 179.46875 195.277344 174.371094 190.660156 170.855469 C 189.972656 170.339844 189.523438 169.476562 189.109375 168.71875 C 187.492188 165.652344 186.664062 162.308594 185.769531 159.003906 C 185.113281 156.589844 185.355469 154.625 187.523438 152.902344 C 198.378906 167.753906 204.511719 183.949219 201.066406 202.761719 Z M 190.144531 150.664062 C 190.179688 150.628906 190.28125 150.492188 190.417969 150.457031 C 194.175781 149.941406 197.964844 149.183594 201.753906 149.011719 C 207.648438 148.769531 212.953125 151.386719 218.328125 153.351562 C 220.738281 154.246094 222.667969 155.867188 224.046875 158.070312 C 224.773438 159.242188 224.976562 160.414062 224.324219 161.792969 C 223.429688 163.6875 222.667969 165.6875 221.84375 167.648438 C 221.671875 166.617188 221.292969 165.410156 221.257812 164.203125 C 221.1875 162.207031 220.429688 160.621094 218.777344 159.554688 C 217.433594 158.691406 216.019531 157.796875 214.503906 157.277344 C 210.164062 155.796875 205.785156 154.351562 201.375 153.144531 C 197.65625 152.179688 193.863281 151.492188 190.144531 150.664062 Z M 246.789062 134.675781 C 246.683594 134.882812 246.617188 135.089844 246.511719 135.296875 C 240.792969 133.640625 235.039062 134.195312 229.355469 135.019531 C 217.089844 136.777344 204.890625 138.914062 193.246094 143.324219 C 193.105469 143.359375 192.96875 143.324219 192.625 143.324219 C 192.96875 143.050781 193.140625 142.875 193.382812 142.773438 C 194.449219 142.222656 195.484375 141.53125 196.585938 141.121094 C 205.40625 137.984375 214.160156 134.746094 223.082031 131.917969 C 228.769531 130.128906 234.730469 129.644531 240.550781 131.714844 C 242.6875 132.503906 244.6875 133.675781 246.789062 134.675781 Z M 198.859375 201.105469 C 198.6875 201.175781 198.515625 201.210938 198.308594 201.277344 C 197.414062 199.246094 196.277344 197.316406 195.691406 195.214844 C 193.761719 188.117188 191.796875 181.054688 188.902344 174.265625 C 188.730469 173.851562 188.59375 173.371094 188.488281 172.921875 C 188.386719 172.472656 188.351562 171.992188 188.28125 171.40625 C 195.554688 177.125 197.105469 185.1875 198.515625 192.941406 C 197.65625 193.59375 197.136719 194.007812 196.621094 194.421875 C 197.105469 194.800781 197.621094 195.144531 198.066406 195.558594 C 198.34375 195.800781 198.757812 196.109375 198.757812 196.421875 C 198.894531 197.972656 198.859375 199.554688 198.859375 201.105469 Z M 187.285156 142.566406 C 186.972656 133.710938 184.011719 125.613281 180.667969 117.242188 C 186.765625 122.824219 190.316406 136.847656 187.285156 142.566406 Z M 179.253906 120.929688 C 179.460938 120.859375 179.703125 120.789062 179.910156 120.722656 C 182.5625 127.507812 184.835938 134.367188 185.285156 141.707031 C 185.148438 141.738281 184.976562 141.773438 184.835938 141.808594 C 183.011719 134.847656 181.117188 127.886719 179.253906 120.929688 Z M 201.339844 173.921875 C 202.753906 173.816406 203.996094 173.679688 205.234375 173.679688 C 205.546875 173.679688 206.164062 174.371094 206.097656 174.507812 C 205.167969 176.816406 204.132812 179.125 203.03125 181.675781 C 202.445312 178.953125 201.925781 176.503906 201.339844 173.921875 Z M 201.339844 173.921875 " fill-opacity="1" fill-rule="nonzero"/></g><path fill="#475e53" d="M 222.289062 60.699219 C 211.195312 62.457031 202.203125 67.488281 196.722656 77.722656 C 194.554688 81.753906 194.003906 86.230469 193.484375 90.710938 C 192.488281 99.324219 192.625 107.9375 192.382812 116.585938 C 192.210938 122.71875 191.109375 128.851562 190.453125 134.953125 C 190.210938 137.226562 190.074219 139.535156 189.832031 142.222656 C 190.453125 141.222656 190.9375 140.5 191.417969 139.777344 C 195.242188 133.816406 197.277344 127.234375 198.515625 120.308594 C 200.34375 110.074219 202.445312 99.875 204.476562 89.675781 C 205.511719 84.441406 207.027344 79.375 210.472656 75.171875 C 213.054688 72.035156 215.917969 69.105469 218.605469 66.007812 C 220.015625 64.421875 221.292969 62.699219 222.636719 61.042969 C 222.53125 60.976562 222.429688 60.835938 222.289062 60.699219 Z M 179.1875 150.558594 C 178.910156 150.664062 178.636719 150.835938 178.359375 150.90625 C 170.8125 152.9375 163.441406 155.316406 156.722656 159.414062 C 153.792969 161.207031 152.964844 163.6875 154.550781 166.71875 C 155 167.582031 155.617188 168.410156 156.171875 169.199219 C 157.136719 170.578125 158.203125 171.886719 159.132812 173.265625 C 160.753906 175.679688 161.132812 178.332031 160.375 181.089844 C 159.375 184.601562 157.859375 187.738281 154.242188 189.359375 C 153.035156 189.910156 151.933594 190.117188 150.726562 189.082031 C 151.378906 188.496094 152 188.015625 152.550781 187.460938 C 155.101562 185.085938 156.550781 182.226562 156.308594 178.675781 C 156.066406 175.265625 154.792969 172.199219 152.898438 169.339844 C 151.828125 167.71875 150.726562 166.101562 149.933594 164.34375 C 148.210938 160.585938 148.867188 156.417969 151.792969 154.488281 C 154.207031 152.902344 156.960938 151.765625 159.71875 150.871094 C 164.058594 149.492188 168.644531 149.90625 173.121094 149.871094 C 175.121094 149.871094 177.152344 150.078125 179.152344 150.179688 C 179.152344 150.355469 179.1875 150.457031 179.1875 150.558594 Z M 180.425781 135.46875 C 178.050781 130.472656 175.222656 125.648438 173.363281 120.480469 C 170.054688 111.316406 166.507812 102.183594 164.679688 92.535156 C 163.992188 88.882812 163.921875 85.199219 164.679688 81.546875 C 164.957031 82.71875 165.09375 83.921875 165.371094 85.09375 C 166.609375 90.953125 169.46875 96.15625 172.296875 101.359375 C 174.433594 105.320312 176.050781 109.351562 176.601562 113.863281 C 177.152344 118.273438 177.945312 122.652344 178.808594 127.027344 C 179.359375 129.816406 180.253906 132.574219 180.976562 135.332031 C 180.773438 135.332031 180.597656 135.398438 180.425781 135.46875 Z M 200.960938 201.691406 C 200.929688 201.382812 200.894531 201.074219 200.929688 200.761719 C 201.203125 195.25 200.375 189.875 198.792969 184.671875 C 197.242188 179.433594 195.3125 174.335938 190.695312 170.820312 C 190.003906 170.304688 189.558594 169.441406 189.144531 168.683594 C 187.523438 165.617188 186.699219 162.273438 185.800781 158.96875 C 185.148438 156.554688 185.386719 154.589844 187.558594 152.867188 C 198.414062 167.789062 204.546875 183.980469 201.101562 202.796875 C 201.03125 202.417969 200.996094 202.070312 200.960938 201.691406 Z M 246.511719 135.296875 C 240.792969 133.640625 235.039062 134.195312 229.355469 135.019531 C 217.089844 136.777344 204.890625 138.914062 193.246094 143.324219 C 193.105469 143.359375 192.96875 143.324219 192.625 143.324219 C 192.96875 143.050781 193.140625 142.875 193.382812 142.773438 C 194.449219 142.222656 195.484375 141.53125 196.585938 141.121094 C 205.40625 137.984375 214.160156 134.746094 223.082031 131.917969 C 228.769531 130.128906 234.730469 129.644531 240.550781 131.714844 C 242.722656 132.472656 244.753906 133.675781 246.859375 134.675781 C 246.71875 134.882812 246.617188 135.089844 246.511719 135.296875 Z M 246.511719 135.296875 " fill-opacity="1" fill-rule="nonzero"/><path fill="#b3d2a7" d="M 143.492188 109.59375 C 145.800781 111.453125 148.210938 113.175781 150.417969 115.175781 C 153.515625 118 156.582031 120.859375 159.375 123.960938 C 161.027344 125.785156 162.199219 128.09375 163.476562 130.265625 C 165.265625 133.230469 166.886719 136.261719 168.675781 139.222656 C 171.125 143.253906 175.15625 145.390625 179.152344 147.460938 C 180.875 148.355469 182.734375 149.011719 184.527344 149.800781 C 184.664062 149.664062 184.804688 149.527344 184.90625 149.421875 C 183.804688 147.253906 182.699219 145.117188 181.597656 142.945312 C 179.046875 138.019531 176.601562 133.058594 173.949219 128.199219 C 170.195312 121.34375 164.75 116.65625 156.859375 115.140625 C 152.484375 114.3125 148.589844 112.246094 144.765625 110.074219 C 144.386719 109.867188 143.972656 109.695312 143.558594 109.488281 C 143.558594 109.488281 143.523438 109.523438 143.492188 109.59375 Z M 206.164062 215.40625 C 205.199219 214.921875 204.234375 214.511719 203.304688 213.957031 C 201.71875 213.0625 200.203125 212.03125 198.550781 211.203125 C 196.898438 210.375 195.761719 209.167969 195.140625 207.480469 C 194.105469 204.691406 193.175781 201.863281 192.175781 199.074219 C 189.972656 193.042969 187.835938 187.015625 185.527344 181.019531 C 184.527344 178.402344 183.113281 175.917969 182.011719 173.335938 C 179.738281 168.132812 181.253906 163.273438 183.527344 158.484375 C 184.457031 161.65625 185.214844 164.824219 185.90625 168.03125 C 186.59375 171.128906 186.9375 174.335938 187.972656 177.296875 C 189.695312 182.191406 191.589844 186.980469 192.660156 192.046875 C 193.65625 196.800781 195.65625 201.105469 198.792969 204.929688 C 201.445312 208.203125 203.753906 211.753906 206.234375 215.164062 C 206.234375 215.269531 206.199219 215.335938 206.164062 215.40625 Z M 190.417969 150.492188 C 194.175781 149.972656 197.964844 149.214844 201.753906 149.042969 C 207.648438 148.804688 212.953125 151.421875 218.328125 153.386719 C 220.738281 154.28125 222.667969 155.902344 224.046875 158.105469 C 224.773438 159.277344 224.976562 160.449219 224.324219 161.828125 C 223.429688 163.722656 222.667969 165.722656 221.84375 167.683594 C 221.671875 166.652344 221.292969 165.445312 221.257812 164.238281 C 221.1875 162.242188 220.429688 160.65625 218.777344 159.585938 C 217.433594 158.726562 216.019531 157.832031 214.503906 157.3125 C 210.164062 155.832031 205.785156 154.386719 201.375 153.179688 C 197.6875 152.179688 193.898438 151.492188 190.179688 150.664062 C 190.179688 150.664062 190.28125 150.492188 190.417969 150.492188 Z M 180.703125 117.242188 C 186.800781 122.824219 190.351562 136.847656 187.316406 142.566406 C 186.972656 133.710938 184.011719 125.613281 180.703125 117.242188 Z M 180.703125 117.242188 " fill-opacity="1" fill-rule="nonzero"/><path fill="#e9b3a3" d="M 168.367188 172.128906 C 171.503906 176.539062 172.882812 182.054688 174.570312 187.429688 C 174.777344 188.117188 175.191406 188.839844 175.15625 189.53125 C 175.085938 191.90625 176.636719 192.628906 178.496094 193.042969 C 179.839844 193.355469 180.324219 193.972656 179.359375 195.316406 C 178.050781 194.9375 176.707031 194.558594 175.15625 194.113281 C 175.050781 195.214844 174.878906 196.316406 174.914062 197.386719 C 174.984375 199.316406 176.535156 200.695312 178.324219 200.726562 C 182.425781 200.867188 186.527344 201.3125 190.832031 201.691406 C 190.28125 199.730469 189.730469 197.800781 189.179688 195.871094 C 187.285156 189.253906 184.285156 183.085938 181.390625 176.882812 C 180.460938 174.851562 179.460938 173.886719 177.152344 173.714844 C 174.15625 173.507812 171.191406 172.679688 168.367188 172.128906 Z M 201.824219 157.453125 C 204.960938 157.105469 208.027344 156.832031 211.128906 158.070312 C 215.847656 160 216.226562 160.484375 215.125 165.480469 C 215.125 165.515625 215.089844 165.582031 215.089844 165.617188 C 214.917969 166.582031 214.367188 166.859375 213.367188 167.03125 C 212.125 167.238281 210.851562 166.617188 209.578125 167.71875 C 208.578125 168.582031 206.855469 168.613281 205.441406 168.960938 C 204.375 169.199219 203.269531 169.511719 202.203125 169.546875 C 201.339844 169.578125 199.964844 169.546875 199.652344 169.027344 C 197.515625 165.582031 195.585938 162 193.519531 158.3125 C 196.550781 158.039062 199.171875 157.761719 201.824219 157.453125 Z M 169.847656 168.0625 C 167.988281 167.617188 166.09375 167.410156 164.578125 165.824219 C 163.957031 165.167969 163.199219 163.652344 161.613281 164.617188 C 161.511719 164.6875 160.375 163.6875 160.234375 163.066406 C 159.824219 160.898438 160.546875 159.65625 162.40625 158.554688 C 162.957031 158.242188 163.507812 157.933594 164.058594 157.691406 C 166.816406 156.382812 169.402344 155.382812 172.640625 156.796875 C 175.191406 157.898438 178.1875 157.96875 180.945312 158.484375 C 180.425781 160.242188 179.773438 162.136719 179.324219 164.066406 C 178.910156 166.03125 178.703125 168.0625 178.429688 170.132812 C 175.601562 169.441406 172.742188 168.753906 169.847656 168.0625 Z M 198.308594 201.277344 C 197.414062 199.246094 196.277344 197.316406 195.691406 195.214844 C 193.761719 188.117188 191.796875 181.054688 188.902344 174.265625 C 188.730469 173.851562 188.59375 173.371094 188.488281 172.921875 C 188.386719 172.472656 188.351562 171.992188 188.28125 171.40625 C 195.554688 177.125 197.105469 185.1875 198.515625 192.941406 C 197.65625 193.59375 197.136719 194.007812 196.621094 194.421875 C 197.105469 194.800781 197.621094 195.144531 198.066406 195.558594 C 198.34375 195.800781 198.757812 196.109375 198.757812 196.421875 C 198.828125 198.007812 198.792969 199.589844 198.792969 201.140625 C 198.6875 201.175781 198.515625 201.246094 198.308594 201.277344 Z M 205.234375 173.679688 C 205.546875 173.679688 206.164062 174.371094 206.097656 174.507812 C 205.167969 176.816406 204.132812 179.125 203.03125 181.675781 C 202.445312 178.953125 201.894531 176.503906 201.339844 173.921875 C 202.753906 173.816406 203.996094 173.679688 205.234375 173.679688 Z M 205.234375 173.679688 " fill-opacity="1" fill-rule="nonzero"/></svg>