<svg xmlns="http://www.w3.org/2000/svg" xmlns:xlink="http://www.w3.org/1999/xlink" width="500" zoomAndPan="magnify" viewBox="0 0 375 374.999991" height="500" preserveAspectRatio="xMidYMid meet" version="1.0"><defs><g/></defs><rect x="-37.5" width="450" fill="#ffffff" y="-37.499999" height="449.999989" fill-opacity="1"/><rect x="-37.5" width="450" fill="#ffffff" y="-37.499999" height="449.999989" fill-opacity="1"/><g fill="#000000" fill-opacity="1"><g transform="translate(8.789644, 193.755987)"><g><path d="M 32.75 -20.296875 C 33.34375 -20.171875 33.644531 -19.75 33.65625 -19.03125 C 33.675781 -18.320312 33.375 -17.921875 32.75 -17.828125 C 31.875 -17.703125 30.609375 -17.625 28.953125 -17.59375 C 30.140625 -14.53125 30.296875 -11.253906 29.421875 -7.765625 C 29.015625 -6.015625 28.257812 -4.375 27.15625 -2.84375 C 26.050781 -1.320312 24.75 -0.09375 23.25 0.84375 C 20.445312 2.625 17.328125 3.234375 13.890625 2.671875 C 12.179688 2.390625 10.613281 1.703125 9.1875 0.609375 C 7.769531 -0.484375 6.578125 -1.84375 5.609375 -3.46875 C 4.367188 -5.582031 3.5 -7.929688 3 -10.515625 C 2.5 -13.109375 2.347656 -15.660156 2.546875 -18.171875 C 2.753906 -20.679688 3.242188 -23.15625 4.015625 -25.59375 C 5.328125 -29.707031 7.046875 -32.929688 9.171875 -35.265625 C 11.660156 -37.984375 14.921875 -39.453125 18.953125 -39.671875 C 19.753906 -39.734375 20.546875 -39.722656 21.328125 -39.640625 C 22.109375 -39.566406 22.90625 -39.421875 23.71875 -39.203125 C 24.53125 -38.984375 25.28125 -38.640625 25.96875 -38.171875 C 26.65625 -37.703125 27.195312 -37.140625 27.59375 -36.484375 C 28.34375 -35.398438 28.5625 -34.1875 28.25 -32.84375 C 27.9375 -31.5 27.160156 -30.578125 25.921875 -30.078125 C 25.359375 -29.828125 24.941406 -30.019531 24.671875 -30.65625 C 24.410156 -31.300781 24.5625 -31.75 25.125 -32 C 25.59375 -32.21875 25.90625 -32.578125 26.0625 -33.078125 C 26.21875 -33.578125 26.203125 -34.0625 26.015625 -34.53125 C 25.859375 -35.082031 25.488281 -35.515625 24.90625 -35.828125 C 24.332031 -36.140625 23.734375 -36.3125 23.109375 -36.34375 C 20.210938 -36.5 17.53125 -35.628906 15.0625 -33.734375 C 13.28125 -32.390625 11.800781 -30.28125 10.625 -27.40625 C 9.5625 -24.945312 8.828125 -22.285156 8.421875 -19.421875 C 8.015625 -16.671875 8.078125 -13.921875 8.609375 -11.171875 C 9.140625 -8.429688 10.226562 -6.21875 11.875 -4.53125 C 12.1875 -4.1875 12.46875 -3.925781 12.71875 -3.75 C 12.71875 -3.71875 12.875 -3.609375 13.1875 -3.421875 C 13.25 -3.359375 13.484375 -3.234375 13.890625 -3.046875 C 13.984375 -2.984375 14.046875 -2.953125 14.078125 -2.953125 C 14.109375 -2.921875 14.171875 -2.890625 14.265625 -2.859375 C 14.796875 -2.703125 15.328125 -2.5625 15.859375 -2.4375 C 15.953125 -2.40625 16.015625 -2.390625 16.046875 -2.390625 C 16.109375 -2.390625 16.1875 -2.390625 16.28125 -2.390625 C 16.8125 -2.359375 17.09375 -2.34375 17.125 -2.34375 C 18.125 -2.34375 19.179688 -2.546875 20.296875 -2.953125 C 21.171875 -3.234375 21.984375 -3.664062 22.734375 -4.25 C 24.328125 -5.5 25.515625 -7.484375 26.296875 -10.203125 C 26.859375 -12.285156 26.90625 -14.703125 26.4375 -17.453125 C 25.90625 -17.421875 24.972656 -17.34375 23.640625 -17.21875 C 22.316406 -17.09375 21.296875 -17.015625 20.578125 -16.984375 C 20.046875 -16.984375 19.648438 -17.191406 19.390625 -17.609375 C 19.128906 -18.035156 19.066406 -18.488281 19.203125 -18.96875 C 19.347656 -19.445312 19.664062 -19.734375 20.15625 -19.828125 C 21.71875 -20.109375 23.828125 -20.3125 26.484375 -20.4375 C 29.410156 -20.5625 31.5 -20.515625 32.75 -20.296875 Z M 32.75 -20.296875 "/></g></g></g><g fill="#000000" fill-opacity="1"><g transform="translate(42.240552, 193.755987)"><g><path d="M 9.59375 -25.96875 C 10.875 -26.125 11.957031 -25.753906 12.84375 -24.859375 C 13.726562 -23.972656 14.125 -22.890625 14.03125 -21.609375 C 13.90625 -20.117188 13.328125 -19.078125 12.296875 -18.484375 C 11.617188 -18.046875 10.910156 -17.941406 10.171875 -18.171875 C 9.441406 -18.410156 8.96875 -18.898438 8.75 -19.640625 C 8.5625 -20.296875 8.753906 -20.765625 9.328125 -21.046875 C 9.910156 -21.328125 10.421875 -21.25 10.859375 -20.8125 C 11.046875 -20.90625 11.15625 -20.984375 11.1875 -21.046875 C 11.375 -21.203125 11.5 -21.453125 11.5625 -21.796875 C 11.675781 -22.421875 11.503906 -22.90625 11.046875 -23.25 C 10.484375 -23.5 9.9375 -23.53125 9.40625 -23.34375 C 8.875 -23.15625 8.390625 -22.859375 7.953125 -22.453125 C 7.203125 -21.734375 6.734375 -20.582031 6.546875 -19 C 6.546875 -18.8125 6.546875 -18.6875 6.546875 -18.625 C 6.640625 -17.625 6.703125 -16.25 6.734375 -14.5 C 6.796875 -13.90625 6.800781 -13.1875 6.75 -12.34375 C 6.707031 -11.507812 6.5625 -10.828125 6.3125 -10.296875 C 6.03125 -9.828125 5.640625 -9.609375 5.140625 -9.640625 C 4.640625 -9.671875 4.25 -9.90625 3.96875 -10.34375 C 3.9375 -10.34375 3.921875 -10.328125 3.921875 -10.296875 C 3.773438 -10.546875 3.644531 -10.851562 3.53125 -11.21875 C 3.425781 -11.59375 3.359375 -11.878906 3.328125 -12.078125 C 3.296875 -12.285156 3.265625 -12.660156 3.234375 -13.203125 C 3.203125 -13.753906 3.1875 -14.0625 3.1875 -14.125 C 3.15625 -14.625 3.09375 -15.332031 3 -16.25 C 2.90625 -17.175781 2.859375 -17.734375 2.859375 -17.921875 C 2.640625 -20.253906 2.34375 -22.703125 1.96875 -25.265625 C 1.90625 -25.828125 2.097656 -26.265625 2.546875 -26.578125 C 3.003906 -26.890625 3.453125 -26.828125 3.890625 -26.390625 C 4.597656 -25.671875 5.171875 -24.71875 5.609375 -23.53125 C 6.671875 -24.9375 8 -25.75 9.59375 -25.96875 Z M 10.90625 -20.8125 C 10.96875 -20.75 11.015625 -20.6875 11.046875 -20.625 C 10.984375 -20.6875 10.9375 -20.75 10.90625 -20.8125 Z M 10.90625 -20.8125 "/></g></g></g><g fill="#000000" fill-opacity="1"><g transform="translate(56.275886, 193.755987)"><g><path d="M 16.796875 -18.15625 C 17.109375 -18.5625 17.515625 -18.613281 18.015625 -18.3125 C 18.515625 -18.019531 18.671875 -17.640625 18.484375 -17.171875 C 17.796875 -15.515625 16.75 -14.101562 15.34375 -12.9375 C 13.9375 -11.769531 12.378906 -11.03125 10.671875 -10.71875 C 8.890625 -10.4375 7.453125 -10.484375 6.359375 -10.859375 C 4.679688 -11.503906 3.421875 -12.625 2.578125 -14.21875 C 2.015625 -15.34375 1.675781 -16.554688 1.5625 -17.859375 C 1.457031 -19.171875 1.628906 -20.46875 2.078125 -21.75 C 2.535156 -23.03125 3.273438 -24.03125 4.296875 -24.75 C 5.859375 -25.84375 7.421875 -26.1875 8.984375 -25.78125 C 10.609375 -25.34375 11.40625 -24.140625 11.375 -22.171875 C 11.375 -20.609375 10.925781 -19.257812 10.03125 -18.125 C 9.144531 -16.988281 7.96875 -16.28125 6.5 -16 C 6.90625 -15.28125 7.472656 -14.832031 8.203125 -14.65625 C 8.941406 -14.488281 9.828125 -14.453125 10.859375 -14.546875 C 12.003906 -14.671875 12.890625 -14.953125 13.515625 -15.390625 C 15.140625 -16.546875 16.234375 -17.46875 16.796875 -18.15625 Z M 8.09375 -22.734375 C 7.1875 -22.390625 6.546875 -21.726562 6.171875 -20.75 C 5.796875 -19.769531 5.703125 -18.75 5.890625 -17.6875 C 7.234375 -18.125 8.203125 -18.898438 8.796875 -20.015625 C 9.203125 -20.734375 9.359375 -21.453125 9.265625 -22.171875 C 9.234375 -22.578125 9.125 -22.816406 8.9375 -22.890625 C 8.75 -22.972656 8.46875 -22.921875 8.09375 -22.734375 Z M 8.09375 -22.734375 "/></g></g></g><g fill="#000000" fill-opacity="1"><g transform="translate(70.311219, 193.755987)"><g><path d="M 16.796875 -18.15625 C 17.109375 -18.5625 17.515625 -18.613281 18.015625 -18.3125 C 18.515625 -18.019531 18.671875 -17.640625 18.484375 -17.171875 C 17.796875 -15.515625 16.75 -14.101562 15.34375 -12.9375 C 13.9375 -11.769531 12.378906 -11.03125 10.671875 -10.71875 C 8.890625 -10.4375 7.453125 -10.484375 6.359375 -10.859375 C 4.679688 -11.503906 3.421875 -12.625 2.578125 -14.21875 C 2.015625 -15.34375 1.675781 -16.554688 1.5625 -17.859375 C 1.457031 -19.171875 1.628906 -20.46875 2.078125 -21.75 C 2.535156 -23.03125 3.273438 -24.03125 4.296875 -24.75 C 5.859375 -25.84375 7.421875 -26.1875 8.984375 -25.78125 C 10.609375 -25.34375 11.40625 -24.140625 11.375 -22.171875 C 11.375 -20.609375 10.925781 -19.257812 10.03125 -18.125 C 9.144531 -16.988281 7.96875 -16.28125 6.5 -16 C 6.90625 -15.28125 7.472656 -14.832031 8.203125 -14.65625 C 8.941406 -14.488281 9.828125 -14.453125 10.859375 -14.546875 C 12.003906 -14.671875 12.890625 -14.953125 13.515625 -15.390625 C 15.140625 -16.546875 16.234375 -17.46875 16.796875 -18.15625 Z M 8.09375 -22.734375 C 7.1875 -22.390625 6.546875 -21.726562 6.171875 -20.75 C 5.796875 -19.769531 5.703125 -18.75 5.890625 -17.6875 C 7.234375 -18.125 8.203125 -18.898438 8.796875 -20.015625 C 9.203125 -20.734375 9.359375 -21.453125 9.265625 -22.171875 C 9.234375 -22.578125 9.125 -22.816406 8.9375 -22.890625 C 8.75 -22.972656 8.46875 -22.921875 8.09375 -22.734375 Z M 8.09375 -22.734375 "/></g></g></g><g fill="#000000" fill-opacity="1"><g transform="translate(84.346552, 193.755987)"><g><path d="M 20.625 -17.78125 C 20.90625 -18.125 21.28125 -18.160156 21.75 -17.890625 C 22.21875 -17.628906 22.375 -17.28125 22.21875 -16.84375 C 21.84375 -15.90625 21.566406 -15.25 21.390625 -14.875 C 21.222656 -14.5 20.9375 -13.941406 20.53125 -13.203125 C 20.125 -12.472656 19.6875 -11.875 19.21875 -11.40625 C 18.757812 -10.945312 18.234375 -10.578125 17.640625 -10.296875 C 16.234375 -9.640625 14.875 -9.644531 13.5625 -10.3125 C 12.257812 -10.988281 11.484375 -12.085938 11.234375 -13.609375 C 11.171875 -13.953125 11.125 -14.332031 11.09375 -14.75 C 11.0625 -15.175781 11.050781 -15.53125 11.0625 -15.8125 C 11.082031 -16.09375 11.097656 -16.484375 11.109375 -16.984375 C 11.128906 -17.484375 11.140625 -17.84375 11.140625 -18.0625 C 11.203125 -18.625 11.207031 -19.316406 11.15625 -20.140625 C 11.113281 -20.960938 10.953125 -21.640625 10.671875 -22.171875 C 10.421875 -22.609375 10.113281 -22.890625 9.75 -23.015625 C 9.394531 -23.140625 9.03125 -23.128906 8.65625 -22.984375 C 8.28125 -22.847656 7.921875 -22.59375 7.578125 -22.21875 C 6.765625 -21.46875 6.234375 -20.609375 5.984375 -19.640625 C 6.046875 -18.867188 6.078125 -18.359375 6.078125 -18.109375 C 6.109375 -17.671875 6.15625 -17.113281 6.21875 -16.4375 C 6.28125 -15.769531 6.332031 -15.191406 6.375 -14.703125 C 6.425781 -14.222656 6.46875 -13.671875 6.5 -13.046875 C 6.53125 -12.421875 6.53125 -11.863281 6.5 -11.375 C 6.46875 -10.75 6.207031 -10.28125 5.71875 -9.96875 C 5.238281 -9.65625 4.726562 -9.582031 4.1875 -9.75 C 3.644531 -9.925781 3.296875 -10.3125 3.140625 -10.90625 C 2.765625 -12.269531 2.515625 -14.609375 2.390625 -17.921875 C 2.265625 -20.941406 2.40625 -23.25 2.8125 -24.84375 C 2.9375 -25.46875 3.351562 -25.78125 4.0625 -25.78125 C 4.78125 -25.78125 5.21875 -25.46875 5.375 -24.84375 C 5.4375 -24.46875 5.515625 -24.03125 5.609375 -23.53125 C 6.328125 -24.28125 7.09375 -24.828125 7.90625 -25.171875 C 9.3125 -25.734375 10.601562 -25.65625 11.78125 -24.9375 C 12.96875 -24.21875 13.8125 -23.140625 14.3125 -21.703125 C 14.6875 -20.609375 14.875 -19.035156 14.875 -16.984375 C 14.875 -16.921875 14.859375 -16.671875 14.828125 -16.234375 C 14.796875 -15.796875 14.78125 -15.425781 14.78125 -15.125 C 14.78125 -14.832031 14.828125 -14.519531 14.921875 -14.1875 C 15.015625 -13.863281 15.15625 -13.640625 15.34375 -13.515625 C 15.96875 -13.046875 16.890625 -13.40625 18.109375 -14.59375 C 18.296875 -14.78125 18.484375 -14.972656 18.671875 -15.171875 C 18.859375 -15.378906 19.03125 -15.59375 19.1875 -15.8125 C 19.34375 -16.03125 19.492188 -16.238281 19.640625 -16.4375 C 19.796875 -16.644531 19.96875 -16.875 20.15625 -17.125 C 20.34375 -17.375 20.5 -17.59375 20.625 -17.78125 Z M 20.625 -17.78125 "/></g></g></g><g fill="#000000" fill-opacity="1"><g transform="translate(101.329336, 193.755987)"><g><path d="M 31.109375 -16.09375 C 31.421875 -15.5 31.328125 -14.925781 30.828125 -14.375 C 30.328125 -13.832031 29.796875 -13.78125 29.234375 -14.21875 C 28.796875 -14.53125 28.210938 -15.035156 27.484375 -15.734375 C 26.753906 -16.441406 26.21875 -16.9375 25.875 -17.21875 C 25.28125 -17.6875 24.5625 -18.140625 23.71875 -18.578125 C 23.40625 -17.984375 23.0625 -17.4375 22.6875 -16.9375 C 20.8125 -14.3125 18.753906 -12.75 16.515625 -12.25 C 14.796875 -11.882812 13.375 -12.195312 12.25 -13.1875 C 11.570312 -13.84375 11.125 -14.8125 10.90625 -16.09375 C 10.6875 -17.53125 10.910156 -18.878906 11.578125 -20.140625 C 12.242188 -21.398438 13.234375 -22.3125 14.546875 -22.875 C 16.078125 -23.53125 17.929688 -23.625 20.109375 -23.15625 C 20.234375 -23.59375 20.328125 -23.96875 20.390625 -24.28125 C 20.421875 -24.5 20.453125 -24.71875 20.484375 -24.9375 C 20.484375 -24.96875 20.488281 -25.03125 20.5 -25.125 C 20.519531 -25.21875 20.53125 -25.28125 20.53125 -25.3125 C 20.5625 -25.8125 20.59375 -26.28125 20.625 -26.71875 C 20.625 -27.144531 20.609375 -27.59375 20.578125 -28.0625 C 20.546875 -28.09375 20.519531 -28.175781 20.5 -28.3125 C 20.488281 -28.457031 20.484375 -28.546875 20.484375 -28.578125 C 20.484375 -28.609375 20.484375 -28.671875 20.484375 -28.765625 L 20.4375 -28.90625 C 20.34375 -29.40625 20.21875 -29.875 20.0625 -30.3125 C 20.03125 -30.46875 19.96875 -30.65625 19.875 -30.875 C 19.875 -30.90625 19.84375 -30.96875 19.78125 -31.0625 C 19.75 -31.125 19.734375 -31.171875 19.734375 -31.203125 C 19.734375 -31.234375 19.691406 -31.316406 19.609375 -31.453125 C 19.535156 -31.597656 19.5 -31.6875 19.5 -31.71875 C 19.414062 -31.90625 19.3125 -32.078125 19.1875 -32.234375 C 19.125 -32.359375 19.03125 -32.515625 18.90625 -32.703125 C 18.8125 -32.828125 18.75 -32.90625 18.71875 -32.9375 C 18.4375 -33.25 18.109375 -33.578125 17.734375 -33.921875 C 17.703125 -33.953125 17.671875 -33.96875 17.640625 -33.96875 C 17.609375 -34 17.578125 -34.03125 17.546875 -34.0625 C 17.296875 -34.21875 17.125 -34.328125 17.03125 -34.390625 C 16.375 -34.765625 15.515625 -35.070312 14.453125 -35.3125 C 13.453125 -35.53125 12.441406 -35.59375 11.421875 -35.5 C 9.109375 -35.25 7.515625 -34.128906 6.640625 -32.140625 C 6.609375 -32.015625 6.546875 -31.90625 6.453125 -31.8125 C 6.453125 -31.53125 6.457031 -31.035156 6.46875 -30.328125 C 6.488281 -29.628906 6.5 -29.09375 6.5 -28.71875 C 6.65625 -22.144531 6.734375 -18.734375 6.734375 -18.484375 C 6.765625 -17.359375 6.828125 -15.695312 6.921875 -13.5 C 7.015625 -11.300781 7.082031 -9.515625 7.125 -8.140625 C 7.175781 -6.765625 7.203125 -5.132812 7.203125 -3.25 C 7.203125 -1.363281 7.140625 0.375 7.015625 1.96875 C 6.984375 2.5 6.738281 2.910156 6.28125 3.203125 C 5.832031 3.503906 5.359375 3.582031 4.859375 3.4375 C 4.359375 3.300781 4.0625 2.953125 3.96875 2.390625 C 3.664062 0.765625 3.410156 -0.867188 3.203125 -2.515625 C 3.003906 -4.171875 2.847656 -6.035156 2.734375 -8.109375 C 2.628906 -10.191406 2.5625 -11.785156 2.53125 -12.890625 C 2.5 -13.992188 2.46875 -15.796875 2.4375 -18.296875 C 2.34375 -22.441406 2.3125 -25.914062 2.34375 -28.71875 C 2.4375 -33.457031 2.65625 -36.875 3 -38.96875 C 3.0625 -39.4375 3.320312 -39.765625 3.78125 -39.953125 C 4.25 -40.140625 4.71875 -40.140625 5.1875 -39.953125 C 5.65625 -39.765625 5.921875 -39.4375 5.984375 -38.96875 C 6.109375 -38.125 6.203125 -37.171875 6.265625 -36.109375 C 7.984375 -37.953125 10.273438 -38.988281 13.140625 -39.21875 C 16.015625 -39.457031 18.492188 -38.859375 20.578125 -37.421875 C 22.671875 -35.984375 24.109375 -34.015625 24.890625 -31.515625 C 25.671875 -29.023438 25.84375 -26.410156 25.40625 -23.671875 C 25.28125 -22.953125 25.109375 -22.234375 24.890625 -21.515625 C 26.203125 -20.921875 27.410156 -20.148438 28.515625 -19.203125 C 29.617188 -18.253906 30.484375 -17.21875 31.109375 -16.09375 Z M 14.265625 -16.1875 C 14.296875 -16.1875 14.3125 -16.1875 14.3125 -16.1875 Z M 18.15625 -19 C 18.3125 -19.25 18.4375 -19.414062 18.53125 -19.5 C 18.6875 -19.75 18.859375 -20.046875 19.046875 -20.390625 C 17.234375 -20.828125 15.828125 -20.59375 14.828125 -19.6875 C 14.203125 -19.164062 13.859375 -18.5 13.796875 -17.6875 C 13.765625 -17.28125 13.78125 -16.96875 13.84375 -16.75 C 13.84375 -16.75 13.890625 -16.65625 13.984375 -16.46875 C 13.984375 -16.46875 14.03125 -16.421875 14.125 -16.328125 C 14.125 -16.296875 14.15625 -16.28125 14.21875 -16.28125 L 14.3125 -16.1875 C 14.4375 -16.1875 14.519531 -16.1875 14.5625 -16.1875 C 14.613281 -16.1875 14.65625 -16.1875 14.6875 -16.1875 C 14.6875 -16.21875 14.71875 -16.25 14.78125 -16.28125 C 15 -16.375 15.171875 -16.453125 15.296875 -16.515625 C 15.671875 -16.734375 16.046875 -16.96875 16.421875 -17.21875 C 16.484375 -17.25 16.515625 -17.265625 16.515625 -17.265625 C 16.546875 -17.296875 16.59375 -17.34375 16.65625 -17.40625 C 16.6875 -17.4375 16.734375 -17.472656 16.796875 -17.515625 C 16.859375 -17.566406 16.910156 -17.613281 16.953125 -17.65625 C 17.003906 -17.707031 17.046875 -17.765625 17.078125 -17.828125 C 17.359375 -18.078125 17.6875 -18.421875 18.0625 -18.859375 C 18.125 -18.921875 18.15625 -18.96875 18.15625 -19 Z M 14.78125 -16.28125 L 14.828125 -16.28125 C 14.796875 -16.28125 14.78125 -16.28125 14.78125 -16.28125 Z M 14.78125 -16.28125 "/></g></g></g><g fill="#000000" fill-opacity="1"><g transform="translate(128.183651, 193.755987)"><g><path d="M 14.78125 -16.65625 C 15.1875 -17.0625 15.675781 -17.109375 16.25 -16.796875 C 16.832031 -16.484375 17.015625 -16.03125 16.796875 -15.4375 C 15.703125 -12.414062 14.0625 -10.375 11.875 -9.3125 C 10.820312 -8.6875 9.613281 -8.378906 8.25 -8.390625 C 6.894531 -8.410156 5.734375 -8.828125 4.765625 -9.640625 C 4.117188 -10.203125 3.578125 -10.882812 3.140625 -11.6875 C 2.703125 -12.5 2.394531 -13.40625 2.21875 -14.40625 C 2.050781 -15.40625 1.941406 -16.300781 1.890625 -17.09375 C 1.847656 -17.894531 1.828125 -18.804688 1.828125 -19.828125 C 1.859375 -22.328125 2.25 -25.367188 3 -28.953125 C 3.59375 -31.890625 4.289062 -34.382812 5.09375 -36.4375 C 5.40625 -37.15625 5.796875 -37.769531 6.265625 -38.28125 C 6.734375 -38.800781 7.296875 -39.15625 7.953125 -39.34375 C 8.609375 -39.53125 9.296875 -39.390625 10.015625 -38.921875 C 10.515625 -38.640625 10.910156 -38.234375 11.203125 -37.703125 C 11.503906 -37.171875 11.679688 -36.546875 11.734375 -35.828125 C 11.796875 -35.117188 11.816406 -34.515625 11.796875 -34.015625 C 11.785156 -33.515625 11.753906 -32.921875 11.703125 -32.234375 C 11.296875 -27.679688 9.5 -23.097656 6.3125 -18.484375 C 6.34375 -17.921875 6.375 -17.328125 6.40625 -16.703125 C 6.40625 -16.703125 6.421875 -16.640625 6.453125 -16.515625 L 6.453125 -16.421875 C 6.484375 -16.265625 6.5 -16.15625 6.5 -16.09375 C 6.5625 -15.78125 6.625 -15.5 6.6875 -15.25 C 6.75 -14.9375 6.84375 -14.59375 6.96875 -14.21875 C 7 -14.1875 7.015625 -14.140625 7.015625 -14.078125 C 7.015625 -14.078125 7.03125 -14.078125 7.0625 -14.078125 C 7.125 -13.890625 7.1875 -13.734375 7.25 -13.609375 C 7.28125 -13.578125 7.316406 -13.519531 7.359375 -13.4375 C 7.410156 -13.363281 7.457031 -13.296875 7.5 -13.234375 C 7.550781 -13.171875 7.578125 -13.140625 7.578125 -13.140625 C 7.671875 -13.046875 7.71875 -12.984375 7.71875 -12.953125 C 7.75 -12.921875 7.78125 -12.90625 7.8125 -12.90625 C 7.9375 -12.8125 8.0625 -12.71875 8.1875 -12.625 C 8.21875 -12.625 8.25 -12.609375 8.28125 -12.578125 C 8.3125 -12.578125 8.328125 -12.578125 8.328125 -12.578125 C 8.578125 -12.484375 8.8125 -12.4375 9.03125 -12.4375 C 9.59375 -12.4375 10.21875 -12.625 10.90625 -13 C 11.375 -13.28125 11.804688 -13.613281 12.203125 -14 C 12.609375 -14.394531 13.078125 -14.875 13.609375 -15.4375 C 14.140625 -16 14.53125 -16.40625 14.78125 -16.65625 Z M 7.8125 -32.328125 C 6.96875 -28.460938 6.46875 -25.015625 6.3125 -21.984375 C 8.15625 -25.453125 9.25 -28.742188 9.59375 -31.859375 C 9.6875 -33.015625 9.6875 -34.132812 9.59375 -35.21875 C 9.5625 -35.40625 9.503906 -35.660156 9.421875 -35.984375 C 9.347656 -36.316406 9.3125 -36.515625 9.3125 -36.578125 L 9.171875 -36.859375 C 9.078125 -36.796875 9.03125 -36.765625 9.03125 -36.765625 C 8.84375 -36.515625 8.675781 -36.1875 8.53125 -35.78125 C 8.394531 -35.375 8.296875 -34.992188 8.234375 -34.640625 C 8.171875 -34.285156 8.097656 -33.863281 8.015625 -33.375 C 7.941406 -32.894531 7.875 -32.546875 7.8125 -32.328125 Z M 7.8125 -32.328125 "/></g></g></g><g fill="#000000" fill-opacity="1"><g transform="translate(140.207289, 193.755987)"><g><path d="M 20.015625 -18.203125 C 20.328125 -18.484375 20.703125 -18.515625 21.140625 -18.296875 C 21.578125 -18.078125 21.71875 -17.75 21.5625 -17.3125 C 21.375 -16.75 21.109375 -16.15625 20.765625 -15.53125 C 20.421875 -14.90625 20.023438 -14.269531 19.578125 -13.625 C 19.128906 -12.988281 18.625 -12.4375 18.0625 -11.96875 C 17.5 -11.507812 16.921875 -11.140625 16.328125 -10.859375 C 15.734375 -10.578125 15.097656 -10.484375 14.421875 -10.578125 C 13.753906 -10.671875 13.125 -10.984375 12.53125 -11.515625 C 11.976562 -12.003906 11.546875 -12.640625 11.234375 -13.421875 C 10.078125 -12.273438 8.734375 -11.65625 7.203125 -11.5625 C 5.859375 -11.46875 4.671875 -11.773438 3.640625 -12.484375 C 2.617188 -13.203125 1.890625 -14.113281 1.453125 -15.21875 C 1.015625 -16.332031 0.800781 -17.539062 0.8125 -18.84375 C 0.832031 -20.15625 1.140625 -21.34375 1.734375 -22.40625 C 2.296875 -23.5 3.117188 -24.378906 4.203125 -25.046875 C 5.296875 -25.722656 6.453125 -26.046875 7.671875 -26.015625 C 9.734375 -26.015625 11.382812 -25.265625 12.625 -23.765625 C 12.71875 -23.984375 12.875 -24.316406 13.09375 -24.765625 C 13.3125 -25.222656 13.46875 -25.546875 13.5625 -25.734375 C 13.78125 -26.234375 14.175781 -26.359375 14.75 -26.109375 C 15.332031 -25.859375 15.53125 -25.46875 15.34375 -24.9375 C 14.71875 -22.96875 14.234375 -21.097656 13.890625 -19.328125 C 13.390625 -16.890625 13.5 -15.125 14.21875 -14.03125 C 14.4375 -13.6875 14.703125 -13.472656 15.015625 -13.390625 C 15.328125 -13.316406 15.640625 -13.375 15.953125 -13.5625 C 16.265625 -13.75 16.578125 -13.988281 16.890625 -14.28125 C 17.203125 -14.582031 17.519531 -14.941406 17.84375 -15.359375 C 18.175781 -15.785156 18.46875 -16.175781 18.71875 -16.53125 C 18.96875 -16.894531 19.210938 -17.234375 19.453125 -17.546875 C 19.703125 -17.859375 19.890625 -18.078125 20.015625 -18.203125 Z M 6.546875 -15.625 C 6.796875 -15.5 7.050781 -15.4375 7.3125 -15.4375 C 7.582031 -15.4375 7.828125 -15.46875 8.046875 -15.53125 C 8.265625 -15.59375 8.484375 -15.691406 8.703125 -15.828125 C 8.921875 -15.972656 9.113281 -16.125 9.28125 -16.28125 C 9.457031 -16.4375 9.644531 -16.628906 9.84375 -16.859375 C 10.050781 -17.097656 10.21875 -17.300781 10.34375 -17.46875 C 10.46875 -17.644531 10.609375 -17.859375 10.765625 -18.109375 C 10.796875 -18.296875 10.828125 -18.46875 10.859375 -18.625 C 11.015625 -19.519531 11.28125 -20.484375 11.65625 -21.515625 C 9.90625 -22.953125 8.359375 -23.28125 7.015625 -22.5 C 6.328125 -22.09375 5.8125 -21.5 5.46875 -20.71875 C 5.1875 -20.15625 5.03125 -19.535156 5 -18.859375 C 5 -18.609375 5 -18.375 5 -18.15625 C 5 -18.03125 5 -17.96875 5 -17.96875 C 5.03125 -17.9375 5.046875 -17.875 5.046875 -17.78125 C 5.078125 -17.625 5.125 -17.4375 5.1875 -17.21875 C 5.25 -17.0625 5.296875 -16.953125 5.328125 -16.890625 C 5.640625 -16.265625 6.046875 -15.84375 6.546875 -15.625 Z M 6.546875 -15.625 "/></g></g></g><g fill="#000000" fill-opacity="1"><g transform="translate(157.049707, 193.755987)"><g><path d="M 20.625 -17.78125 C 20.90625 -18.125 21.28125 -18.160156 21.75 -17.890625 C 22.21875 -17.628906 22.375 -17.28125 22.21875 -16.84375 C 21.84375 -15.90625 21.566406 -15.25 21.390625 -14.875 C 21.222656 -14.5 20.9375 -13.941406 20.53125 -13.203125 C 20.125 -12.472656 19.6875 -11.875 19.21875 -11.40625 C 18.757812 -10.945312 18.234375 -10.578125 17.640625 -10.296875 C 16.234375 -9.640625 14.875 -9.644531 13.5625 -10.3125 C 12.257812 -10.988281 11.484375 -12.085938 11.234375 -13.609375 C 11.171875 -13.953125 11.125 -14.332031 11.09375 -14.75 C 11.0625 -15.175781 11.050781 -15.53125 11.0625 -15.8125 C 11.082031 -16.09375 11.097656 -16.484375 11.109375 -16.984375 C 11.128906 -17.484375 11.140625 -17.84375 11.140625 -18.0625 C 11.203125 -18.625 11.207031 -19.316406 11.15625 -20.140625 C 11.113281 -20.960938 10.953125 -21.640625 10.671875 -22.171875 C 10.421875 -22.609375 10.113281 -22.890625 9.75 -23.015625 C 9.394531 -23.140625 9.03125 -23.128906 8.65625 -22.984375 C 8.28125 -22.847656 7.921875 -22.59375 7.578125 -22.21875 C 6.765625 -21.46875 6.234375 -20.609375 5.984375 -19.640625 C 6.046875 -18.867188 6.078125 -18.359375 6.078125 -18.109375 C 6.109375 -17.671875 6.15625 -17.113281 6.21875 -16.4375 C 6.28125 -15.769531 6.332031 -15.191406 6.375 -14.703125 C 6.425781 -14.222656 6.46875 -13.671875 6.5 -13.046875 C 6.53125 -12.421875 6.53125 -11.863281 6.5 -11.375 C 6.46875 -10.75 6.207031 -10.28125 5.71875 -9.96875 C 5.238281 -9.65625 4.726562 -9.582031 4.1875 -9.75 C 3.644531 -9.925781 3.296875 -10.3125 3.140625 -10.90625 C 2.765625 -12.269531 2.515625 -14.609375 2.390625 -17.921875 C 2.265625 -20.941406 2.40625 -23.25 2.8125 -24.84375 C 2.9375 -25.46875 3.351562 -25.78125 4.0625 -25.78125 C 4.78125 -25.78125 5.21875 -25.46875 5.375 -24.84375 C 5.4375 -24.46875 5.515625 -24.03125 5.609375 -23.53125 C 6.328125 -24.28125 7.09375 -24.828125 7.90625 -25.171875 C 9.3125 -25.734375 10.601562 -25.65625 11.78125 -24.9375 C 12.96875 -24.21875 13.8125 -23.140625 14.3125 -21.703125 C 14.6875 -20.609375 14.875 -19.035156 14.875 -16.984375 C 14.875 -16.921875 14.859375 -16.671875 14.828125 -16.234375 C 14.796875 -15.796875 14.78125 -15.425781 14.78125 -15.125 C 14.78125 -14.832031 14.828125 -14.519531 14.921875 -14.1875 C 15.015625 -13.863281 15.15625 -13.640625 15.34375 -13.515625 C 15.96875 -13.046875 16.890625 -13.40625 18.109375 -14.59375 C 18.296875 -14.78125 18.484375 -14.972656 18.671875 -15.171875 C 18.859375 -15.378906 19.03125 -15.59375 19.1875 -15.8125 C 19.34375 -16.03125 19.492188 -16.238281 19.640625 -16.4375 C 19.796875 -16.644531 19.96875 -16.875 20.15625 -17.125 C 20.34375 -17.375 20.5 -17.59375 20.625 -17.78125 Z M 20.625 -17.78125 "/></g></g></g><g fill="#000000" fill-opacity="1"><g transform="translate(174.03249, 193.755987)"><g><path d="M 15.203125 -6.828125 C 16.015625 -6.234375 16.453125 -5.492188 16.515625 -4.609375 C 16.578125 -3.722656 16.359375 -2.894531 15.859375 -2.125 C 15.359375 -1.363281 14.691406 -0.6875 13.859375 -0.09375 C 13.035156 0.5 12.238281 0.84375 11.46875 0.9375 C 9.65625 1.125 8.09375 0.585938 6.78125 -0.671875 C 5.46875 -1.941406 4.519531 -3.507812 3.9375 -5.375 C 3 -8.21875 2.53125 -12.257812 2.53125 -17.5 C 2.53125 -22.050781 2.765625 -26.554688 3.234375 -31.015625 C 1.671875 -31.046875 0.609375 -31.0625 0.046875 -31.0625 C -0.359375 -31.09375 -0.644531 -31.269531 -0.8125 -31.59375 C -0.988281 -31.925781 -0.988281 -32.265625 -0.8125 -32.609375 C -0.644531 -32.953125 -0.359375 -33.125 0.046875 -33.125 C 1.234375 -33.1875 2.390625 -33.234375 3.515625 -33.265625 C 3.847656 -36.222656 4.296875 -39.15625 4.859375 -42.0625 C 4.984375 -42.675781 5.332031 -43.0625 5.90625 -43.21875 C 6.488281 -43.375 7.03125 -43.296875 7.53125 -42.984375 C 8.03125 -42.679688 8.265625 -42.21875 8.234375 -41.59375 C 8.171875 -40.40625 8.0625 -37.660156 7.90625 -33.359375 C 9.6875 -33.390625 11.054688 -33.3125 12.015625 -33.125 C 12.453125 -33.03125 12.671875 -32.722656 12.671875 -32.203125 C 12.671875 -31.691406 12.453125 -31.390625 12.015625 -31.296875 C 10.960938 -31.015625 9.5625 -30.890625 7.8125 -30.921875 C 7.75 -29.859375 7.703125 -29.125 7.671875 -28.71875 C 7.453125 -23.757812 7.34375 -19.628906 7.34375 -16.328125 C 7.375 -13.953125 7.5 -11.941406 7.71875 -10.296875 C 8.03125 -8.046875 8.421875 -6.375 8.890625 -5.28125 C 9.171875 -4.65625 9.5625 -4.109375 10.0625 -3.640625 C 10.5625 -3.179688 11.125 -3.03125 11.75 -3.1875 C 12.019531 -3.25 12.359375 -3.460938 12.765625 -3.828125 C 13.171875 -4.203125 13.28125 -4.515625 13.09375 -4.765625 C 12.84375 -5.140625 12.8125 -5.5625 13 -6.03125 C 13.1875 -6.5 13.488281 -6.8125 13.90625 -6.96875 C 14.332031 -7.125 14.765625 -7.078125 15.203125 -6.828125 Z M 15.203125 -6.828125 "/></g></g></g><g fill="#000000" fill-opacity="1"><g transform="translate(185.915762, 193.755987)"><g><path d="M 15.71875 -18.109375 C 16.25 -18.265625 16.613281 -18.09375 16.8125 -17.59375 C 17.019531 -17.09375 16.90625 -16.6875 16.46875 -16.375 C 16.21875 -16.21875 15.484375 -15.875 14.265625 -15.34375 C 13.953125 -15.21875 13.53125 -15.019531 13 -14.75 C 12.46875 -14.488281 12.125 -14.328125 11.96875 -14.265625 C 11.757812 -14.171875 11.394531 -14.003906 10.875 -13.765625 C 10.363281 -13.535156 9.96875 -13.359375 9.6875 -13.234375 C 11 -10.085938 11.0625 -7.59375 9.875 -5.75 C 9.375 -4.9375 8.707031 -4.335938 7.875 -3.953125 C 7.050781 -3.566406 6.21875 -3.515625 5.375 -3.796875 C 4.5625 -4.035156 3.882812 -4.515625 3.34375 -5.234375 C 2.800781 -5.953125 2.484375 -6.734375 2.390625 -7.578125 C 2.140625 -9.671875 3.023438 -11.601562 5.046875 -13.375 C 5.046875 -13.375 5.03125 -13.390625 5 -13.421875 C 4.96875 -13.484375 4.953125 -13.53125 4.953125 -13.5625 C 4.453125 -14.53125 4.117188 -15.21875 3.953125 -15.625 C 3.785156 -16.03125 3.5625 -16.628906 3.28125 -17.421875 C 3 -18.222656 2.8125 -18.945312 2.71875 -19.59375 C 2.34375 -22 2.882812 -23.921875 4.34375 -25.359375 C 4.96875 -25.984375 5.8125 -26.34375 6.875 -26.4375 C 7.9375 -26.53125 8.84375 -26.34375 9.59375 -25.875 C 10.28125 -25.46875 10.804688 -24.894531 11.171875 -24.15625 C 11.546875 -23.425781 11.691406 -22.671875 11.609375 -21.890625 C 11.484375 -21.015625 11.066406 -20.335938 10.359375 -19.859375 C 9.660156 -19.378906 8.90625 -19.367188 8.09375 -19.828125 C 7.625 -20.171875 7.488281 -20.597656 7.6875 -21.109375 C 7.894531 -21.628906 8.296875 -21.828125 8.890625 -21.703125 C 9.265625 -21.609375 9.4375 -21.78125 9.40625 -22.21875 C 9.34375 -22.8125 9.125 -23.265625 8.75 -23.578125 C 8.6875 -23.609375 8.640625 -23.625 8.609375 -23.625 C 7.890625 -24 7.34375 -23.71875 6.96875 -22.78125 C 6.84375 -22.46875 6.769531 -22.113281 6.75 -21.71875 C 6.738281 -21.332031 6.753906 -20.972656 6.796875 -20.640625 C 6.847656 -20.316406 6.941406 -19.929688 7.078125 -19.484375 C 7.222656 -19.035156 7.34375 -18.6875 7.4375 -18.4375 C 7.53125 -18.1875 7.671875 -17.84375 7.859375 -17.40625 C 7.921875 -17.28125 7.953125 -17.1875 7.953125 -17.125 C 8.109375 -16.75 8.34375 -16.234375 8.65625 -15.578125 C 9.625 -16.046875 10.679688 -16.46875 11.828125 -16.84375 C 14.359375 -17.6875 15.65625 -18.109375 15.71875 -18.109375 Z M 7.0625 -8.1875 C 7.125 -8.6875 6.875 -9.53125 6.3125 -10.71875 C 6.3125 -10.75 6.300781 -10.78125 6.28125 -10.8125 C 6.269531 -10.84375 6.265625 -10.875 6.265625 -10.90625 C 5.359375 -9.875 5.015625 -8.90625 5.234375 -8 C 5.390625 -7.34375 5.707031 -7.050781 6.1875 -7.125 C 6.675781 -7.207031 6.96875 -7.5625 7.0625 -8.1875 Z M 7.0625 -8.1875 "/></g></g></g><g fill="#000000" fill-opacity="1"><g transform="translate(198.220086, 193.755987)"><g><path d="M 23.203125 -5.328125 C 23.578125 -5.859375 24.050781 -6.003906 24.625 -5.765625 C 25.207031 -5.535156 25.421875 -5.09375 25.265625 -4.4375 C 24.859375 -2.507812 23.847656 -0.796875 22.234375 0.703125 C 20.628906 2.203125 18.816406 3.21875 16.796875 3.75 C 14.765625 4.300781 12.734375 4.359375 10.703125 3.921875 C 8.679688 3.492188 6.875 2.609375 5.28125 1.265625 C 3.976562 0.171875 2.96875 -1.226562 2.25 -2.9375 C 1.53125 -4.65625 1.109375 -6.4375 0.984375 -8.28125 C 0.921875 -9.5 1.015625 -10.710938 1.265625 -11.921875 C 1.515625 -13.140625 1.910156 -14.300781 2.453125 -15.40625 C 3.003906 -16.519531 3.679688 -17.546875 4.484375 -18.484375 C 5.640625 -19.785156 7.109375 -20.734375 8.890625 -21.328125 C 8.078125 -22.109375 7.40625 -22.953125 6.875 -23.859375 C 6.15625 -25.109375 5.734375 -26.445312 5.609375 -27.875 C 5.484375 -29.3125 5.628906 -30.675781 6.046875 -31.96875 C 6.472656 -33.269531 7.175781 -34.457031 8.15625 -35.53125 C 9.144531 -36.601562 10.3125 -37.390625 11.65625 -37.890625 C 13.082031 -38.390625 14.578125 -38.472656 16.140625 -38.140625 C 17.703125 -37.816406 19.070312 -37.1875 20.25 -36.25 C 21.34375 -35.320312 22.015625 -34.15625 22.265625 -32.75 C 22.515625 -31.34375 22.21875 -30.0625 21.375 -28.90625 C 21.0625 -28.53125 20.691406 -28.484375 20.265625 -28.765625 C 19.847656 -29.046875 19.703125 -29.390625 19.828125 -29.796875 C 20.234375 -31.109375 19.992188 -32.222656 19.109375 -33.140625 C 18.222656 -34.066406 17.09375 -34.5625 15.71875 -34.625 C 13.40625 -34.6875 11.722656 -33.65625 10.671875 -31.53125 C 9.796875 -29.75 9.828125 -27.894531 10.765625 -25.96875 C 11.234375 -25.03125 11.835938 -24.234375 12.578125 -23.578125 C 13.328125 -22.921875 14.28125 -22.234375 15.4375 -21.515625 C 15.8125 -21.390625 16.09375 -21.125 16.28125 -20.71875 C 16.46875 -20.3125 16.5 -19.921875 16.375 -19.546875 C 16.25 -19.085938 16 -18.765625 15.625 -18.578125 C 15.25 -18.390625 14.828125 -18.328125 14.359375 -18.390625 C 13.703125 -18.484375 13.046875 -18.671875 12.390625 -18.953125 C 11.335938 -18.890625 10.375 -18.46875 9.5 -17.6875 C 8.59375 -16.8125 7.75 -15.578125 6.96875 -13.984375 C 6.3125 -12.609375 5.953125 -11.164062 5.890625 -9.65625 C 5.828125 -8.144531 6.09375 -6.671875 6.6875 -5.234375 C 7.28125 -3.804688 8.1875 -2.65625 9.40625 -1.78125 C 10.46875 -0.96875 11.691406 -0.441406 13.078125 -0.203125 C 14.460938 0.0234375 15.796875 -0.046875 17.078125 -0.421875 C 19.191406 -1.078125 21.234375 -2.710938 23.203125 -5.328125 Z M 23.203125 -5.328125 "/></g></g></g><g fill="#000000" fill-opacity="1"><g transform="translate(221.37841, 193.755987)"><g><path d="M 20.484375 -24.75 C 20.890625 -25.1875 21.332031 -25.207031 21.8125 -24.8125 C 22.300781 -24.425781 22.390625 -24 22.078125 -23.53125 C 21.578125 -22.6875 20.882812 -22.050781 20 -21.625 C 19.113281 -21.207031 18.203125 -21.140625 17.265625 -21.421875 C 16.515625 -21.640625 15.890625 -22.046875 15.390625 -22.640625 C 15.265625 -22.109375 15.171875 -21.703125 15.109375 -21.421875 C 14.953125 -20.890625 14.765625 -20.140625 14.546875 -19.171875 C 14.328125 -18.210938 14.1875 -17.625 14.125 -17.40625 C 14.03125 -16.96875 13.90625 -16.503906 13.75 -16.015625 C 13.59375 -15.535156 13.453125 -15.113281 13.328125 -14.75 C 13.203125 -14.394531 13.03125 -13.953125 12.8125 -13.421875 C 12.59375 -12.890625 12.425781 -12.484375 12.3125 -12.203125 C 12.207031 -11.921875 12.023438 -11.46875 11.765625 -10.84375 C 11.503906 -10.226562 11.328125 -9.828125 11.234375 -9.640625 C 10.984375 -9.078125 10.5 -8.753906 9.78125 -8.671875 C 9.0625 -8.597656 8.53125 -8.78125 8.1875 -9.21875 C 7.96875 -9.5 7.765625 -9.78125 7.578125 -10.0625 C 7.390625 -10.34375 7.207031 -10.675781 7.03125 -11.0625 C 6.863281 -11.457031 6.734375 -11.769531 6.640625 -12 C 6.546875 -12.226562 6.40625 -12.578125 6.21875 -13.046875 C 6.03125 -13.515625 5.90625 -13.828125 5.84375 -13.984375 C 5.1875 -15.609375 4.625 -17.078125 4.15625 -18.390625 C 3.632812 -19.878906 3.171875 -21.453125 2.765625 -23.109375 C 2.734375 -23.203125 2.671875 -23.453125 2.578125 -23.859375 C 2.484375 -24.265625 2.421875 -24.53125 2.390625 -24.65625 C 2.359375 -24.78125 2.300781 -25.050781 2.21875 -25.46875 C 2.144531 -25.894531 2.109375 -26.171875 2.109375 -26.296875 C 2.109375 -26.421875 2.09375 -26.679688 2.0625 -27.078125 C 2.03125 -27.484375 2.046875 -27.75 2.109375 -27.875 C 2.171875 -28.34375 2.410156 -28.6875 2.828125 -28.90625 C 3.253906 -29.125 3.632812 -29.046875 3.96875 -28.671875 C 4.21875 -28.359375 4.453125 -28 4.671875 -27.59375 C 4.890625 -27.195312 5.046875 -26.894531 5.140625 -26.6875 C 5.234375 -26.488281 5.410156 -26.078125 5.671875 -25.453125 C 5.941406 -24.828125 6.09375 -24.484375 6.125 -24.421875 C 6.8125 -22.734375 7.40625 -21.265625 7.90625 -20.015625 C 8.84375 -17.585938 9.4375 -16.078125 9.6875 -15.484375 C 9.71875 -15.359375 9.765625 -15.234375 9.828125 -15.109375 C 9.984375 -15.421875 10.160156 -15.78125 10.359375 -16.1875 C 10.566406 -16.59375 10.765625 -17.003906 10.953125 -17.421875 C 11.140625 -17.847656 11.3125 -18.21875 11.46875 -18.53125 C 12.113281 -19.894531 12.625 -21.125 13 -22.21875 C 13.8125 -24.46875 14.25 -25.71875 14.3125 -25.96875 C 14.40625 -26.40625 14.707031 -26.625 15.21875 -26.625 C 15.738281 -26.625 16.046875 -26.40625 16.140625 -25.96875 C 16.296875 -24.90625 16.890625 -24.238281 17.921875 -23.96875 C 18.953125 -23.707031 19.804688 -23.96875 20.484375 -24.75 Z M 20.484375 -24.75 "/></g></g></g><g fill="#000000" fill-opacity="1"><g transform="translate(238.033704, 193.755987)"><g><path d="M 16.796875 -18.15625 C 17.109375 -18.5625 17.515625 -18.613281 18.015625 -18.3125 C 18.515625 -18.019531 18.671875 -17.640625 18.484375 -17.171875 C 17.796875 -15.515625 16.75 -14.101562 15.34375 -12.9375 C 13.9375 -11.769531 12.378906 -11.03125 10.671875 -10.71875 C 8.890625 -10.4375 7.453125 -10.484375 6.359375 -10.859375 C 4.679688 -11.503906 3.421875 -12.625 2.578125 -14.21875 C 2.015625 -15.34375 1.675781 -16.554688 1.5625 -17.859375 C 1.457031 -19.171875 1.628906 -20.46875 2.078125 -21.75 C 2.535156 -23.03125 3.273438 -24.03125 4.296875 -24.75 C 5.859375 -25.84375 7.421875 -26.1875 8.984375 -25.78125 C 10.609375 -25.34375 11.40625 -24.140625 11.375 -22.171875 C 11.375 -20.609375 10.925781 -19.257812 10.03125 -18.125 C 9.144531 -16.988281 7.96875 -16.28125 6.5 -16 C 6.90625 -15.28125 7.472656 -14.832031 8.203125 -14.65625 C 8.941406 -14.488281 9.828125 -14.453125 10.859375 -14.546875 C 12.003906 -14.671875 12.890625 -14.953125 13.515625 -15.390625 C 15.140625 -16.546875 16.234375 -17.46875 16.796875 -18.15625 Z M 8.09375 -22.734375 C 7.1875 -22.390625 6.546875 -21.726562 6.171875 -20.75 C 5.796875 -19.769531 5.703125 -18.75 5.890625 -17.6875 C 7.234375 -18.125 8.203125 -18.898438 8.796875 -20.015625 C 9.203125 -20.734375 9.359375 -21.453125 9.265625 -22.171875 C 9.234375 -22.578125 9.125 -22.816406 8.9375 -22.890625 C 8.75 -22.972656 8.46875 -22.921875 8.09375 -22.734375 Z M 8.09375 -22.734375 "/></g></g></g><g fill="#000000" fill-opacity="1"><g transform="translate(252.069038, 193.755987)"><g><path d="M 9.59375 -25.96875 C 10.875 -26.125 11.957031 -25.753906 12.84375 -24.859375 C 13.726562 -23.972656 14.125 -22.890625 14.03125 -21.609375 C 13.90625 -20.117188 13.328125 -19.078125 12.296875 -18.484375 C 11.617188 -18.046875 10.910156 -17.941406 10.171875 -18.171875 C 9.441406 -18.410156 8.96875 -18.898438 8.75 -19.640625 C 8.5625 -20.296875 8.753906 -20.765625 9.328125 -21.046875 C 9.910156 -21.328125 10.421875 -21.25 10.859375 -20.8125 C 11.046875 -20.90625 11.15625 -20.984375 11.1875 -21.046875 C 11.375 -21.203125 11.5 -21.453125 11.5625 -21.796875 C 11.675781 -22.421875 11.503906 -22.90625 11.046875 -23.25 C 10.484375 -23.5 9.9375 -23.53125 9.40625 -23.34375 C 8.875 -23.15625 8.390625 -22.859375 7.953125 -22.453125 C 7.203125 -21.734375 6.734375 -20.582031 6.546875 -19 C 6.546875 -18.8125 6.546875 -18.6875 6.546875 -18.625 C 6.640625 -17.625 6.703125 -16.25 6.734375 -14.5 C 6.796875 -13.90625 6.800781 -13.1875 6.75 -12.34375 C 6.707031 -11.507812 6.5625 -10.828125 6.3125 -10.296875 C 6.03125 -9.828125 5.640625 -9.609375 5.140625 -9.640625 C 4.640625 -9.671875 4.25 -9.90625 3.96875 -10.34375 C 3.9375 -10.34375 3.921875 -10.328125 3.921875 -10.296875 C 3.773438 -10.546875 3.644531 -10.851562 3.53125 -11.21875 C 3.425781 -11.59375 3.359375 -11.878906 3.328125 -12.078125 C 3.296875 -12.285156 3.265625 -12.660156 3.234375 -13.203125 C 3.203125 -13.753906 3.1875 -14.0625 3.1875 -14.125 C 3.15625 -14.625 3.09375 -15.332031 3 -16.25 C 2.90625 -17.175781 2.859375 -17.734375 2.859375 -17.921875 C 2.640625 -20.253906 2.34375 -22.703125 1.96875 -25.265625 C 1.90625 -25.828125 2.097656 -26.265625 2.546875 -26.578125 C 3.003906 -26.890625 3.453125 -26.828125 3.890625 -26.390625 C 4.597656 -25.671875 5.171875 -24.71875 5.609375 -23.53125 C 6.671875 -24.9375 8 -25.75 9.59375 -25.96875 Z M 10.90625 -20.8125 C 10.96875 -20.75 11.015625 -20.6875 11.046875 -20.625 C 10.984375 -20.6875 10.9375 -20.75 10.90625 -20.8125 Z M 10.90625 -20.8125 "/></g></g></g><g fill="#000000" fill-opacity="1"><g transform="translate(266.104371, 193.755987)"><g><path d="M 17.171875 -3 C 17.921875 2.144531 17.71875 6.359375 16.5625 9.640625 C 15.78125 11.847656 14.578125 13.515625 12.953125 14.640625 C 11.867188 15.421875 10.59375 15.921875 9.125 16.140625 C 7.65625 16.359375 6.28125 16.25 5 15.8125 C 3.976562 15.46875 3.0625 14.890625 2.25 14.078125 C 1.4375 13.265625 0.816406 12.351562 0.390625 11.34375 C -0.0234375 10.332031 -0.207031 9.25 -0.15625 8.09375 C -0.113281 6.9375 0.21875 5.890625 0.84375 4.953125 C 1.59375 3.804688 2.601562 3.066406 3.875 2.734375 C 5.15625 2.410156 6.34375 2.71875 7.4375 3.65625 C 8 4.207031 8.332031 4.925781 8.4375 5.8125 C 8.550781 6.707031 8.363281 7.5 7.875 8.1875 C 7.394531 8.875 6.6875 9.1875 5.75 9.125 C 5.125 9.0625 4.78125 8.738281 4.71875 8.15625 C 4.65625 7.582031 4.90625 7.171875 5.46875 6.921875 C 5.96875 6.734375 6.113281 6.425781 5.90625 6 C 5.707031 5.582031 5.359375 5.40625 4.859375 5.46875 C 4.085938 5.5625 3.515625 6.0625 3.140625 6.96875 C 2.859375 7.625 2.785156 8.3125 2.921875 9.03125 C 3.066406 9.75 3.375 10.390625 3.84375 10.953125 C 4.800781 12.191406 6.171875 12.609375 7.953125 12.203125 C 8.953125 12.015625 9.765625 11.707031 10.390625 11.28125 C 10.546875 11.15625 10.625 11.09375 10.625 11.09375 C 10.78125 10.9375 10.90625 10.8125 11 10.71875 C 11.0625 10.65625 11.140625 10.578125 11.234375 10.484375 C 11.234375 10.484375 11.25 10.457031 11.28125 10.40625 C 11.3125 10.363281 11.328125 10.34375 11.328125 10.34375 C 12.566406 8.46875 13.203125 5.707031 13.234375 2.0625 C 13.234375 0.625 13.140625 -0.84375 12.953125 -2.34375 C 12.953125 -2.4375 12.953125 -2.5 12.953125 -2.53125 C 12.890625 -2.8125 12.84375 -3.109375 12.8125 -3.421875 C 12.71875 -3.972656 12.625 -4.5625 12.53125 -5.1875 C 12.34375 -6.59375 12.1875 -7.84375 12.0625 -8.9375 C 11.9375 -10.03125 11.859375 -10.75 11.828125 -11.09375 C 10.648438 -9.6875 9.234375 -8.953125 7.578125 -8.890625 C 6.640625 -8.859375 5.734375 -9.09375 4.859375 -9.59375 C 3.992188 -10.09375 3.285156 -10.742188 2.734375 -11.546875 C 2.191406 -12.359375 1.828125 -13.234375 1.640625 -14.171875 C 1.421875 -15.328125 1.34375 -16.859375 1.40625 -18.765625 C 1.46875 -21.285156 1.671875 -23.078125 2.015625 -24.140625 C 2.265625 -24.921875 2.804688 -25.3125 3.640625 -25.3125 C 4.484375 -25.3125 5.015625 -24.921875 5.234375 -24.140625 C 5.390625 -23.546875 5.503906 -22.894531 5.578125 -22.1875 C 5.660156 -21.488281 5.703125 -20.835938 5.703125 -20.234375 C 5.703125 -19.628906 5.703125 -18.984375 5.703125 -18.296875 C 5.703125 -17.609375 5.71875 -16.953125 5.75 -16.328125 C 5.75 -15.984375 5.769531 -15.640625 5.8125 -15.296875 C 5.863281 -14.953125 5.953125 -14.578125 6.078125 -14.171875 C 6.203125 -13.765625 6.394531 -13.4375 6.65625 -13.1875 C 6.925781 -12.9375 7.234375 -12.828125 7.578125 -12.859375 C 8.015625 -12.890625 8.394531 -13.035156 8.71875 -13.296875 C 9.050781 -13.566406 9.316406 -13.953125 9.515625 -14.453125 C 9.722656 -14.953125 9.878906 -15.359375 9.984375 -15.671875 C 10.097656 -15.984375 10.203125 -16.390625 10.296875 -16.890625 C 10.671875 -18.421875 10.90625 -19.570312 11 -20.34375 C 11.03125 -20.5625 11.0625 -20.941406 11.09375 -21.484375 C 11.125 -22.035156 11.171875 -22.5 11.234375 -22.875 C 11.296875 -23.25 11.40625 -23.59375 11.5625 -23.90625 C 11.59375 -23.96875 11.625 -24.03125 11.65625 -24.09375 C 11.6875 -24.125 11.703125 -24.160156 11.703125 -24.203125 C 11.703125 -24.253906 11.703125 -24.296875 11.703125 -24.328125 C 11.753906 -24.609375 11.875 -24.832031 12.0625 -25 C 12.25 -25.175781 12.46875 -25.285156 12.71875 -25.328125 C 12.96875 -25.378906 13.21875 -25.378906 13.46875 -25.328125 C 13.71875 -25.285156 13.9375 -25.171875 14.125 -24.984375 C 14.3125 -24.796875 14.4375 -24.578125 14.5 -24.328125 C 14.75 -23.234375 14.941406 -22.085938 15.078125 -20.890625 C 15.222656 -19.691406 15.359375 -18.265625 15.484375 -16.609375 C 15.609375 -14.953125 15.703125 -13.796875 15.765625 -13.140625 C 15.921875 -11.710938 16.390625 -8.332031 17.171875 -3 Z M 17.171875 -3 "/></g></g></g><g fill="#000000" fill-opacity="1"><g transform="translate(284.116426, 193.755987)"><g><path d="M 26.296875 -23.4375 C 26.515625 -23.9375 26.898438 -24.066406 27.453125 -23.828125 C 28.015625 -23.597656 28.203125 -23.21875 28.015625 -22.6875 C 27.546875 -21.28125 26.585938 -20.171875 25.140625 -19.359375 C 23.691406 -18.554688 22.265625 -18.34375 20.859375 -18.71875 C 21.171875 -16.46875 21.25 -14.75 21.09375 -13.5625 C 21 -12.875 20.84375 -12.226562 20.625 -11.625 C 20.40625 -11.019531 20.054688 -10.46875 19.578125 -9.96875 C 19.097656 -9.46875 18.546875 -9.140625 17.921875 -8.984375 C 17.015625 -8.734375 16.175781 -8.832031 15.40625 -9.28125 C 14.644531 -9.738281 14 -10.390625 13.46875 -11.234375 C 13.3125 -10.578125 13.125 -9.96875 12.90625 -9.40625 C 12.125 -7.4375 11.238281 -6.03125 10.25 -5.1875 C 9.46875 -4.5625 8.609375 -4.253906 7.671875 -4.265625 C 6.734375 -4.285156 5.90625 -4.640625 5.1875 -5.328125 C 4.320312 -6.171875 3.625 -7.78125 3.09375 -10.15625 C 2.6875 -12.050781 2.4375 -13.890625 2.34375 -15.671875 C 2.28125 -17.515625 2.390625 -19.351562 2.671875 -21.1875 C 3.046875 -23.65625 3.554688 -25.375 4.203125 -26.34375 C 4.671875 -27.050781 5.296875 -27.296875 6.078125 -27.078125 C 6.859375 -26.867188 7.28125 -26.34375 7.34375 -25.5 C 7.375 -24.9375 7.328125 -24.140625 7.203125 -23.109375 C 7.078125 -22.078125 7 -21.4375 6.96875 -21.1875 C 6.875 -19.789062 6.859375 -18.46875 6.921875 -17.21875 C 7.015625 -14.4375 7.453125 -11.878906 8.234375 -9.546875 C 8.796875 -10.296875 9.265625 -11.164062 9.640625 -12.15625 C 10.078125 -13.5 10.5625 -15.859375 11.09375 -19.234375 C 11.1875 -19.785156 11.472656 -20.128906 11.953125 -20.265625 C 12.429688 -20.410156 12.90625 -20.332031 13.375 -20.03125 C 13.84375 -19.738281 14.09375 -19.332031 14.125 -18.8125 C 14.15625 -17.21875 14.171875 -16.421875 14.171875 -16.421875 C 14.234375 -15.890625 14.515625 -15.1875 15.015625 -14.3125 C 15.015625 -14.3125 15.050781 -14.238281 15.125 -14.09375 C 15.207031 -13.957031 15.269531 -13.859375 15.3125 -13.796875 C 15.363281 -13.734375 15.441406 -13.613281 15.546875 -13.4375 C 15.660156 -13.269531 15.738281 -13.144531 15.78125 -13.0625 C 15.832031 -12.988281 15.921875 -12.863281 16.046875 -12.6875 C 16.171875 -12.519531 16.269531 -12.421875 16.34375 -12.390625 C 16.425781 -12.359375 16.53125 -12.285156 16.65625 -12.171875 C 16.78125 -12.066406 16.875 -12.035156 16.9375 -12.078125 C 17 -12.128906 17.078125 -12.140625 17.171875 -12.109375 C 17.421875 -12.265625 17.640625 -12.703125 17.828125 -13.421875 C 18.171875 -14.515625 18.375 -15.40625 18.4375 -16.09375 C 18.5 -16.875 18.40625 -18.539062 18.15625 -21.09375 C 18.09375 -21.625 18.335938 -22 18.890625 -22.21875 C 19.453125 -22.4375 19.90625 -22.359375 20.25 -21.984375 C 21.125 -20.890625 22.1875 -20.578125 23.4375 -21.046875 C 24.78125 -21.546875 25.734375 -22.34375 26.296875 -23.4375 Z M 8.5625 -8.703125 Z M 8.5625 -8.703125 "/></g></g></g><g fill="#000000" fill-opacity="1"><g transform="translate(307.368312, 193.755987)"><g><path d="M 19.140625 -18.8125 C 19.441406 -19.394531 19.894531 -19.539062 20.5 -19.25 C 21.113281 -18.957031 21.359375 -18.5 21.234375 -17.875 C 21.015625 -16.5625 20.46875 -15.332031 19.59375 -14.1875 C 18.726562 -13.050781 17.71875 -12.3125 16.5625 -11.96875 C 15.53125 -11.664062 14.53125 -11.738281 13.5625 -12.1875 C 12.59375 -12.632812 11.878906 -13.34375 11.421875 -14.3125 C 10.890625 -15.4375 10.78125 -16.828125 11.09375 -18.484375 C 11.15625 -18.734375 11.269531 -19.132812 11.4375 -19.6875 C 11.613281 -20.25 11.710938 -20.65625 11.734375 -20.90625 C 11.765625 -21.15625 11.753906 -21.59375 11.703125 -22.21875 C 11.421875 -23.34375 10.984375 -23.921875 10.390625 -23.953125 C 9.390625 -24.015625 8.59375 -23.109375 8 -21.234375 C 7.5 -19.679688 7.265625 -18.09375 7.296875 -16.46875 C 7.328125 -15.96875 7.375 -15.421875 7.4375 -14.828125 C 7.5 -14.234375 7.582031 -13.609375 7.6875 -12.953125 C 7.800781 -12.296875 7.875 -11.753906 7.90625 -11.328125 C 7.96875 -10.828125 7.8125 -10.390625 7.4375 -10.015625 C 7.0625 -9.640625 6.640625 -9.40625 6.171875 -9.3125 C 5.671875 -9.25 5.21875 -9.359375 4.8125 -9.640625 C 4.40625 -9.921875 4.125 -10.296875 3.96875 -10.765625 C 2.570312 -15.191406 1.75 -19.648438 1.5 -24.140625 C 1.25 -28.160156 1.5 -32.101562 2.25 -35.96875 C 2.625 -37.96875 3.289062 -39.375 4.25 -40.1875 C 4.96875 -40.78125 5.734375 -41.109375 6.546875 -41.171875 C 7.359375 -41.234375 8.15625 -41.03125 8.9375 -40.5625 C 9.5625 -40.15625 10.003906 -39.578125 10.265625 -38.828125 C 10.535156 -38.078125 10.625 -37.257812 10.53125 -36.375 C 10.4375 -35.488281 10.296875 -34.675781 10.109375 -33.9375 C 9.921875 -33.207031 9.703125 -32.484375 9.453125 -31.765625 C 8.453125 -29.109375 7.171875 -27.035156 5.609375 -25.546875 C 5.640625 -24.796875 5.6875 -24.0625 5.75 -23.34375 C 6.21875 -24.125 6.847656 -24.816406 7.640625 -25.421875 C 8.441406 -26.035156 9.25 -26.390625 10.0625 -26.484375 C 10.1875 -26.515625 10.296875 -26.53125 10.390625 -26.53125 C 11.265625 -26.53125 12.070312 -26.269531 12.8125 -25.75 C 13.5625 -25.238281 14.125 -24.59375 14.5 -23.8125 C 15.15625 -22.4375 15.234375 -20.691406 14.734375 -18.578125 C 14.640625 -17.359375 14.6875 -16.53125 14.875 -16.09375 L 14.96875 -15.90625 C 15 -15.84375 15.03125 -15.796875 15.0625 -15.765625 L 15.15625 -15.71875 C 15.25 -15.6875 15.375 -15.65625 15.53125 -15.625 C 15.53125 -15.625 15.578125 -15.613281 15.671875 -15.59375 C 15.765625 -15.582031 15.828125 -15.578125 15.859375 -15.578125 C 15.953125 -15.578125 16.15625 -15.59375 16.46875 -15.625 L 16.609375 -15.625 C 16.796875 -15.71875 17 -15.859375 17.21875 -16.046875 C 17.8125 -16.515625 18.453125 -17.4375 19.140625 -18.8125 Z M 6.5 -37.421875 C 6.34375 -37.046875 6.21875 -36.453125 6.125 -35.640625 C 5.8125 -33.554688 5.625 -31.40625 5.5625 -29.1875 C 6.5 -30.8125 7.171875 -32.484375 7.578125 -34.203125 C 8.171875 -36.660156 8.171875 -38.078125 7.578125 -38.453125 C 7.546875 -38.453125 7.5 -38.4375 7.4375 -38.40625 C 7.25 -38.34375 7.09375 -38.265625 6.96875 -38.171875 C 6.8125 -38.015625 6.65625 -37.765625 6.5 -37.421875 Z M 6.5 -37.421875 "/></g></g></g><g fill="#000000" fill-opacity="1"><g transform="translate(324.070365, 193.755987)"><g><path d="M 16.796875 -18.15625 C 17.109375 -18.5625 17.515625 -18.613281 18.015625 -18.3125 C 18.515625 -18.019531 18.671875 -17.640625 18.484375 -17.171875 C 17.796875 -15.515625 16.75 -14.101562 15.34375 -12.9375 C 13.9375 -11.769531 12.378906 -11.03125 10.671875 -10.71875 C 8.890625 -10.4375 7.453125 -10.484375 6.359375 -10.859375 C 4.679688 -11.503906 3.421875 -12.625 2.578125 -14.21875 C 2.015625 -15.34375 1.675781 -16.554688 1.5625 -17.859375 C 1.457031 -19.171875 1.628906 -20.46875 2.078125 -21.75 C 2.535156 -23.03125 3.273438 -24.03125 4.296875 -24.75 C 5.859375 -25.84375 7.421875 -26.1875 8.984375 -25.78125 C 10.609375 -25.34375 11.40625 -24.140625 11.375 -22.171875 C 11.375 -20.609375 10.925781 -19.257812 10.03125 -18.125 C 9.144531 -16.988281 7.96875 -16.28125 6.5 -16 C 6.90625 -15.28125 7.472656 -14.832031 8.203125 -14.65625 C 8.941406 -14.488281 9.828125 -14.453125 10.859375 -14.546875 C 12.003906 -14.671875 12.890625 -14.953125 13.515625 -15.390625 C 15.140625 -16.546875 16.234375 -17.46875 16.796875 -18.15625 Z M 8.09375 -22.734375 C 7.1875 -22.390625 6.546875 -21.726562 6.171875 -20.75 C 5.796875 -19.769531 5.703125 -18.75 5.890625 -17.6875 C 7.234375 -18.125 8.203125 -18.898438 8.796875 -20.015625 C 9.203125 -20.734375 9.359375 -21.453125 9.265625 -22.171875 C 9.234375 -22.578125 9.125 -22.816406 8.9375 -22.890625 C 8.75 -22.972656 8.46875 -22.921875 8.09375 -22.734375 Z M 8.09375 -22.734375 "/></g></g></g><g fill="#000000" fill-opacity="1"><g transform="translate(338.105698, 193.755987)"><g><path d="M 9.59375 -25.96875 C 10.875 -26.125 11.957031 -25.753906 12.84375 -24.859375 C 13.726562 -23.972656 14.125 -22.890625 14.03125 -21.609375 C 13.90625 -20.117188 13.328125 -19.078125 12.296875 -18.484375 C 11.617188 -18.046875 10.910156 -17.941406 10.171875 -18.171875 C 9.441406 -18.410156 8.96875 -18.898438 8.75 -19.640625 C 8.5625 -20.296875 8.753906 -20.765625 9.328125 -21.046875 C 9.910156 -21.328125 10.421875 -21.25 10.859375 -20.8125 C 11.046875 -20.90625 11.15625 -20.984375 11.1875 -21.046875 C 11.375 -21.203125 11.5 -21.453125 11.5625 -21.796875 C 11.675781 -22.421875 11.503906 -22.90625 11.046875 -23.25 C 10.484375 -23.5 9.9375 -23.53125 9.40625 -23.34375 C 8.875 -23.15625 8.390625 -22.859375 7.953125 -22.453125 C 7.203125 -21.734375 6.734375 -20.582031 6.546875 -19 C 6.546875 -18.8125 6.546875 -18.6875 6.546875 -18.625 C 6.640625 -17.625 6.703125 -16.25 6.734375 -14.5 C 6.796875 -13.90625 6.800781 -13.1875 6.75 -12.34375 C 6.707031 -11.507812 6.5625 -10.828125 6.3125 -10.296875 C 6.03125 -9.828125 5.640625 -9.609375 5.140625 -9.640625 C 4.640625 -9.671875 4.25 -9.90625 3.96875 -10.34375 C 3.9375 -10.34375 3.921875 -10.328125 3.921875 -10.296875 C 3.773438 -10.546875 3.644531 -10.851562 3.53125 -11.21875 C 3.425781 -11.59375 3.359375 -11.878906 3.328125 -12.078125 C 3.296875 -12.285156 3.265625 -12.660156 3.234375 -13.203125 C 3.203125 -13.753906 3.1875 -14.0625 3.1875 -14.125 C 3.15625 -14.625 3.09375 -15.332031 3 -16.25 C 2.90625 -17.175781 2.859375 -17.734375 2.859375 -17.921875 C 2.640625 -20.253906 2.34375 -22.703125 1.96875 -25.265625 C 1.90625 -25.828125 2.097656 -26.265625 2.546875 -26.578125 C 3.003906 -26.890625 3.453125 -26.828125 3.890625 -26.390625 C 4.597656 -25.671875 5.171875 -24.71875 5.609375 -23.53125 C 6.671875 -24.9375 8 -25.75 9.59375 -25.96875 Z M 10.90625 -20.8125 C 10.96875 -20.75 11.015625 -20.6875 11.046875 -20.625 C 10.984375 -20.6875 10.9375 -20.75 10.90625 -20.8125 Z M 10.90625 -20.8125 "/></g></g></g><g fill="#000000" fill-opacity="1"><g transform="translate(352.141032, 193.755987)"><g><path d="M 16.796875 -18.15625 C 17.109375 -18.5625 17.515625 -18.613281 18.015625 -18.3125 C 18.515625 -18.019531 18.671875 -17.640625 18.484375 -17.171875 C 17.796875 -15.515625 16.75 -14.101562 15.34375 -12.9375 C 13.9375 -11.769531 12.378906 -11.03125 10.671875 -10.71875 C 8.890625 -10.4375 7.453125 -10.484375 6.359375 -10.859375 C 4.679688 -11.503906 3.421875 -12.625 2.578125 -14.21875 C 2.015625 -15.34375 1.675781 -16.554688 1.5625 -17.859375 C 1.457031 -19.171875 1.628906 -20.46875 2.078125 -21.75 C 2.535156 -23.03125 3.273438 -24.03125 4.296875 -24.75 C 5.859375 -25.84375 7.421875 -26.1875 8.984375 -25.78125 C 10.609375 -25.34375 11.40625 -24.140625 11.375 -22.171875 C 11.375 -20.609375 10.925781 -19.257812 10.03125 -18.125 C 9.144531 -16.988281 7.96875 -16.28125 6.5 -16 C 6.90625 -15.28125 7.472656 -14.832031 8.203125 -14.65625 C 8.941406 -14.488281 9.828125 -14.453125 10.859375 -14.546875 C 12.003906 -14.671875 12.890625 -14.953125 13.515625 -15.390625 C 15.140625 -16.546875 16.234375 -17.46875 16.796875 -18.15625 Z M 8.09375 -22.734375 C 7.1875 -22.390625 6.546875 -21.726562 6.171875 -20.75 C 5.796875 -19.769531 5.703125 -18.75 5.890625 -17.6875 C 7.234375 -18.125 8.203125 -18.898438 8.796875 -20.015625 C 9.203125 -20.734375 9.359375 -21.453125 9.265625 -22.171875 C 9.234375 -22.578125 9.125 -22.816406 8.9375 -22.890625 C 8.75 -22.972656 8.46875 -22.921875 8.09375 -22.734375 Z M 8.09375 -22.734375 "/></g></g></g></svg>